<?xml version="1.0" encoding="UTF-8" standalone="no"?>
<!-- Created with Inkscape (http://www.inkscape.org/) -->

<svg
   width="79.179779mm"
   height="143.48795mm"
   viewBox="0 0 299.26216 542.31666"
   version="1.1"
   id="svg1"
   xml:space="preserve"
   xmlns="http://www.w3.org/2000/svg"
   xmlns:svg="http://www.w3.org/2000/svg"><defs
     id="defs1" /><g
     id="layer1"
     transform="translate(-370.17883,2665.1587)"><path
       style="fill:#000000"
       d="m 423.6,-2125.072 c -2.28141,-2.2814 -2.34753,-2.8785 -2.85118,-25.75 -0.71382,-32.4149 -3.12854,-40.5717 -16.24068,-54.8597 -12.49282,-13.6132 -20.76106,-27.7925 -26.27236,-45.0547 -7.21867,-22.6099 -8.43406,-38.3171 -7.96989,-103 l 0.33369,-46.5 2.46345,-6.4486 c 3.33502,-8.7302 10.97094,-16.9451 19.78352,-21.2837 6.02678,-2.9671 7.50259,-3.2729 16.04124,-3.3243 l 9.40381,-0.056 1.94888,-5.2244 c 2.77572,-7.441 11.28778,-16.2996 19.58848,-20.386 8.22032,-4.0469 17.86957,-4.8859 26.69263,-2.3209 3.14592,0.9145 5.86416,1.5185 6.04052,1.3421 0.17637,-0.1764 -1.89824,-10.773 -4.61024,-23.548 -5.58076,-26.2886 -22.8915,-114.4636 -26.05494,-132.7152 -1.35932,-7.8426 -1.88351,-13.9994 -1.50488,-17.6756 1.40265,-13.6187 8.64281,-24.2773 20.43156,-30.0783 5.93276,-2.9194 7.54956,-3.2711 14.68482,-3.1942 14.36105,0.1547 25.87448,7.0749 31.94236,19.199 1.75665,3.5099 9.99187,34.8786 24.51567,93.3824 12.72645,51.2638 22.4327,88.4592 23.21523,88.9634 3.01654,1.9433 4.23592,0.3056 6.42774,-8.633 1.21354,-4.949 7.70188,-31.7232 14.41853,-59.4982 25.8171,-106.7601 24.90518,-103.6714 32.99726,-111.7634 9.35188,-9.3519 23.4834,-12.5992 36.1788,-8.3136 10.35309,3.4949 16.70734,9.3075 21.5791,19.7395 2.51285,5.3808 2.71987,6.7763 2.64618,17.8375 -0.0678,10.171 -0.93218,16.4963 -5.67148,41.5 -3.07535,16.225 -8.35472,44.575 -11.73193,63 -3.37721,18.425 -7.92859,43.175 -10.11417,55 -5.08932,27.5356 -6.99978,53.7696 -4.24079,58.2337 0.26377,0.4268 3.09126,2.5496 6.28331,4.7173 6.96405,4.7291 10.24529,8.4679 14.05461,16.0141 5.32165,10.5421 6.03028,17.2308 6.28577,59.3306 0.20227,33.3294 0.003,39.3527 -1.55963,47.2043 -4.69654,23.5943 -13.08044,40.9521 -30.16096,62.4446 -13.53911,17.0363 -15.54755,24.2396 -15.54755,55.7608 v 22.3855 l -2.45455,2.4546 c -2.99863,2.9986 -5.45043,3.1037 -8.91059,0.3819 l -2.63486,-2.0726 v -22.9695 c 0,-27.3841 1.08599,-34.2253 7.52201,-47.3853 2.42085,-4.95 7.77386,-13.2733 11.89556,-18.4963 14.35598,-18.1917 21.80804,-33.4765 25.6226,-52.5543 2.02801,-10.1427 2.17953,-13.6018 2.0565,-46.9494 -0.0749,-20.2979 -0.59508,-38.5895 -1.19266,-41.937 -1.39724,-7.827 -4.79809,-14.3311 -9.90666,-18.9464 -6.88196,-6.2175 -11.96727,-7.8896 -41.49735,-13.645 -8.8,-1.7151 -25.45,-5.4167 -37,-8.2257 -28.95879,-7.043 -36.36432,-6.7666 -41.60531,1.5527 -1.69189,2.6856 -1.95711,4.4904 -1.64607,11.2014 0.45758,9.8723 3.64338,17.4446 10.0235,23.8248 7.67121,7.6712 15.4402,10.5513 56.06787,20.7858 10.29782,2.5941 13.1427,3.6965 14.36888,5.5678 1.28184,1.9564 1.32481,2.8261 0.26593,5.3824 -0.69462,1.677 -9.42063,11.2368 -19.39113,21.2441 -14.55952,14.6133 -18.94644,19.6715 -22.28484,25.6951 -3.92408,7.0803 -7.44737,17.1688 -8.73097,25 -1.48572,9.0643 -6.62588,12.2311 -12.76149,7.8621 -2.90173,-2.0662 -2.97957,-2.3259 -2.32218,-7.75 1.02709,-8.4743 5.047,-19.587 10.71188,-29.6121 6.92309,-12.2517 11.89431,-18.4808 23.73007,-29.7347 5.54062,-5.2682 10.07386,-10.0387 10.07386,-10.601 0,-0.5624 -2.5875,-1.5485 -5.75,-2.1914 -3.1625,-0.6429 -10.61878,-2.4813 -16.56951,-4.0853 -26.88887,-7.2477 -38.33523,-14.4596 -45.60597,-28.7345 -1.21772,-2.3908 -2.39016,-4.1708 -2.6054,-3.9555 -0.21525,0.2152 0.49114,5.285 1.56976,11.2663 2.57952,14.3042 2.55085,23.8849 -0.0926,30.9502 -2.86635,7.661 -9.59812,14.7969 -17.7404,18.8053 -6.04153,2.9743 -7.50812,3.2806 -15.70584,3.2806 -8.19209,0 -9.66655,-0.3074 -15.68548,-3.2705 -14.78175,-7.2771 -17.12854,-13.0348 -29.74319,-72.9739 -3.24294,-15.409 -6.6405,-29.4556 -7.55011,-31.2146 -1.84629,-3.5703 -8.18986,-6.9871 -13.02122,-7.0135 -8.27182,-0.045 -17.4635,6.1342 -21.48668,14.445 -2.14604,4.4331 -2.15266,4.6742 -1.75156,63.7387 0.40134,59.0984 0.4108,59.3257 2.94424,70.7888 4.31512,19.5246 11.93899,35.9351 22.47293,48.3734 13.37402,15.7919 18.07043,23.7468 21.53891,36.4831 1.76021,6.4635 2.15163,11.3988 2.53546,31.9688 0.45221,24.2339 0.44536,24.3343 -1.82401,26.75 -2.87442,3.0597 -6.35211,3.0928 -9.35577,0.089 z m 57.49183,-192.666 c 4.62601,-1.2851 11.21633,-6.9649 13.38555,-11.5362 2.74675,-5.7883 2.02912,-13.0039 -4.47172,-44.9622 -3.35637,-16.5 -7.20646,-35.85 -8.55575,-43 -1.3493,-7.15 -2.72378,-13.9 -3.05441,-15 -2.11762,-7.0452 -13.71672,-14.5 -22.56086,-14.5 -8.88901,0 -17.10632,5.3057 -20.90831,13.5 -2.48091,5.347 -2.39482,7.0232 1.09468,21.3133 1.64699,6.7447 5.46777,23.8574 8.49062,38.0282 10.37938,48.6577 11.58871,51.5754 23.07267,55.6664 4.72084,1.6817 8.69942,1.8262 13.50753,0.4905 z m 23.80333,-83.276 c 1.87593,-4.7249 9.84284,-12.3514 15.41755,-14.7589 9.415,-4.0659 15.58997,-3.7426 38.71377,2.0267 22.24711,5.5507 59.49168,13.2584 61.83417,12.7966 1.15685,-0.2281 1.54097,-2.9478 1.87656,-13.2868 0.44011,-13.5593 1.67518,-23.1851 5.77385,-45 7.69889,-40.9768 26.60061,-146.9275 27.13944,-152.126 1.69068,-16.3112 -7.44523,-28.374 -21.48941,-28.374 -2.87866,0 -6.67409,0.7254 -8.43427,1.612 -4.0444,2.037 -9.4564,7.0969 -11.24862,10.5167 -0.75769,1.4458 -4.78571,16.7458 -8.95114,34 -4.16543,17.2542 -10.46741,43.2963 -14.00441,57.8713 -3.53699,14.575 -9.15849,37.7474 -12.49223,51.4942 -4.31774,17.8044 -6.79125,26.0971 -8.59878,28.8285 -2.66695,4.03 -8.9949,7.6334 -13.40516,7.6334 -4.48642,0 -10.73789,-3.6029 -13.50393,-7.7827 -2.72724,-4.1211 -11.04659,-35.8621 -36.02994,-137.4657 -11.71972,-47.6624 -12.63889,-50.1466 -20.47287,-55.3308 -10.19429,-6.7463 -24.26817,-2.599 -30.12254,8.8765 -3.7892,7.4275 -3.52076,11.9308 2.57789,43.2466 11.32449,58.1499 20.78677,105.5169 25.56996,128 2.69124,12.65 7.42952,35.375 10.52952,50.5 3.1,15.125 5.89654,28.175 6.21454,29 0.31799,0.825 0.89881,-0.975 1.29071,-4 0.3919,-3.025 1.20881,-6.7499 1.81534,-8.2776 z"
       id="path3" /></g></svg>
