<?xml version="1.0" encoding="UTF-8" standalone="no"?>
<!-- Created with Inkscape (http://www.inkscape.org/) -->

<svg
   width="184.92262mm"
   height="198.01144mm"
   viewBox="0 0 698.92017 748.38972"
   version="1.1"
   id="svg1"
   xml:space="preserve"
   xmlns="http://www.w3.org/2000/svg"
   xmlns:svg="http://www.w3.org/2000/svg"><defs
     id="defs1" /><g
     id="layer1"
     transform="translate(-55.858632,-198.60735)"><path
       style="fill:#000000"
       d="m 321.35864,946.06453 c -16.01446,-2.10645 -27.27167,-10.25688 -33.08918,-23.95719 -1.75539,-4.13396 -1.91082,-7.26562 -1.91082,-38.5 0,-37.98194 0.0694,-37.54017 -7.15283,-45.54111 -2.11595,-2.34409 -14.87217,-13.97818 -28.34717,-25.85353 -40.71932,-35.88543 -64.50666,-60.70796 -77.24383,-80.60536 -2.46455,-3.85 -7.54314,-12.85 -11.28576,-20 -14.20605,-27.13959 -26.85302,-48.00549 -52.73136,-87 -17.158866,-25.85567 -22.546426,-32.98649 -39.665406,-52.5 -10.23004,-11.66096 -14.07365,-18.47011 -14.07365,-24.93218 0,-1.57143 0.94697,-5.92307 2.10437,-9.6703 1.81356,-5.87163 3.02274,-7.72731 8.75,-13.42834 13.01765,-12.95801 24.89175,-15.6793 45.732906,-10.481 15.61933,3.89585 21.46497,6.55623 32.31271,14.70572 15.02822,11.29013 26.57305,23.15379 51.3725,52.79125 l 22.99848,27.48515 -0.71074,-10.98515 c -1.38097,-21.34443 -5.66752,-42.40798 -14.5476,-71.48515 -1.5957,-5.225 -5.87635,-20.525 -9.51254,-34 -20.77533,-76.98914 -35.74475,-128.91121 -60.54416,-210 -9.12522,-29.8375 -10.10943,-35.83521 -7.47661,-45.56166 3.5373,-13.06784 15.9201,-27.0669 30.17259,-34.11086 7.63172,-3.7718 7.91317,-3.82748 19.3481,-3.82748 11.41075,0 11.73099,0.0629 19.25653,3.78222 14.05222,6.94499 24.6485,19.10225 28.84907,33.09896 3.76662,12.55074 14.67577,47.01898 27.88949,88.11882 27.17735,84.5322 34.96549,109.21228 36.38048,115.28724 1.42625,6.12331 1.4058,6.35541 -0.78419,8.90142 -3.33807,3.88074 -6.89864,2.64073 -9.9226,-3.45564 -2.38544,-4.80911 -28.50887,-81.9817 -44.08474,-130.23302 -16.38127,-50.74632 -25.58038,-78.07249 -27.64439,-82.1183 -2.84449,-5.57565 -9.49167,-11.99433 -15.46573,-14.93409 -4.22848,-2.08079 -6.39769,-2.44539 -14.47392,-2.4328 -8.32176,0.013 -10.12573,0.34325 -14.5451,2.66301 -7.43578,3.9031 -14.68605,10.90248 -18.28222,17.64957 -3.99624,7.49772 -4.1595,13.64556 -0.67211,25.30931 1.37532,4.59982 9.7272,33.5633 18.55975,64.3633 8.83255,30.8 19.4139,67.58935 23.51413,81.75412 4.10023,14.16476 11.0763,39.36476 15.50239,56 4.42608,16.63523 11.58915,42.62088 15.91792,57.74588 12.67053,44.27162 13.806,50.30274 16.00274,85 1.42553,22.51597 0.43888,20.79398 13.79601,24.07812 26.7942,6.58793 53.09757,17.73476 73.09148,30.97468 10.88642,7.20897 28.62347,23.91931 37.66663,35.48631 12.4229,15.88999 21.95288,33.44301 28.48235,52.46089 2.53528,7.38434 3.28441,11.27 3.36384,17.4479 0.0987,7.67348 0.007,8.00148 -2.64781,9.5 -2.47435,1.39652 -3.02566,1.39838 -5.5,0.0186 -2.35444,-1.31294 -2.91885,-2.53557 -3.92389,-8.5 -3.31851,-19.6938 -16.52053,-46.61633 -32.37847,-66.0286 -22.81123,-27.92403 -59.3117,-48.9288 -102.44764,-58.95509 -6.05,-1.40623 -11.79056,-2.79643 -12.75679,-3.08933 -0.96624,-0.2929 -6.35453,-6.01375 -11.97398,-12.713 -46.66193,-55.6282 -59.1112,-69.79743 -67.90988,-77.29216 -13.71004,-11.67822 -17.08744,-14.14555 -23.18315,-16.93626 -6.36265,-2.91292 -25.32592,-7.43425 -31.176206,-7.43321 -5.5346,9.8e-4 -13.27338,3.86133 -17.79462,8.87653 -4.5145,5.00772 -5.70665,7.81362 -5.70164,13.41974 0.005,5.21724 2.18089,8.86242 11.45367,19.1849 15.60866,17.37559 26.687366,33.01123 54.913036,77.5 21.50572,33.89693 24.30898,38.63708 34.6397,58.57371 19.4506,37.53654 32.35846,52.19677 92.18113,104.69558 24.28338,21.31047 29.46655,26.94333 33.13656,36.01151 1.96823,4.86328 2.14842,7.60602 2.64222,40.2192 0.52584,34.72882 0.54847,35.0298 2.9206,38.84562 3.16456,5.09051 8.94781,9.15557 15.37781,10.80907 4.24918,1.09269 29.1731,1.34531 132.7315,1.34531 119.0707,0 127.8327,-0.11621 132.5317,-1.75785 6.6814,-2.3342 11.7736,-6.68683 14.6133,-12.49094 2.2809,-4.66196 2.3375,-5.53404 3.0132,-46.42788 0.5499,-33.28397 1.0127,-42.95004 2.2978,-48 0.8993,-3.53393 4.8534,-12.27856 8.9635,-19.82333 11.1183,-20.40941 16.0257,-30.58658 19.5288,-40.5 13.945,-39.46346 19.1359,-97.09136 16.0763,-178.47483 -1.8743,-49.85572 -1.4729,-52.12486 16.5751,-93.68734 19.1847,-44.18008 68.3811,-158.23334 72.0189,-166.96305 4.3172,-10.36005 5.5421,-16.7134 4.2937,-22.26954 -4.2277,-18.81623 -25.0159,-29.10179 -42.0551,-20.80801 -9.3862,4.56866 -12.4612,8.92582 -27.45,38.89543 -18.8507,37.6914 -44.9129,86.32588 -57.2357,106.80734 -16.2194,26.95776 -30.346,43.32912 -42.2456,48.95852 -3.5989,1.70256 -8.0756,3.04025 -10.1759,3.04069 -4.3499,9.2e-4 -7.75,-2.77394 -7.75,-6.32489 0,-2.89682 3.885,-6.67432 6.8641,-6.67432 8.0145,0 22.0899,-13.79026 34.3773,-33.68094 16.0543,-25.98845 41.6864,-73.69946 63.9537,-119.04175 11.7692,-23.96545 14.7013,-29.13149 19.4378,-34.24743 6.7337,-7.27323 16.6484,-12.55515 26.6911,-14.21927 18.1817,-3.01282 37.1644,7.24832 45.7783,24.7456 2.6736,5.4309 3.3448,8.1309 3.6991,14.88062 0.5643,10.75253 -0.4392,14.03209 -12.9165,42.21108 -5.5653,12.56865 -13.6176,30.95209 -17.894,40.85209 -4.2764,9.9 -14.1682,32.625 -21.9818,50.5 -31.4134,71.86423 -37.3215,85.78911 -39.246,92.5 -2.4182,8.43241 -2.6949,24.28189 -1.3708,78.5 0.9441,38.65636 0.113,60.89825 -3.4563,92.5 -4.9726,44.02604 -13.1918,71.65469 -30.2687,101.74761 -11.1334,19.61912 -11.3151,20.09423 -12.5473,32.80535 -0.616,6.35412 -1.12,25.34447 -1.12,42.20077 0,18.88337 -0.4316,32.68198 -1.1243,35.94705 -2.3546,11.09724 -9.5726,21.13934 -18.8069,26.16526 -10.5171,5.72412 -7.5268,5.60898 -142.5688,5.48979 -68.19996,-0.0602 -126.69996,-0.46458 -129.99996,-0.89864 z m 23.61232,-335.53774 c -16.873,-4.53772 -31.03353,-18.18569 -36.74965,-35.41945 -1.69901,-5.12241 -1.84532,-11.43848 -2.13111,-92 -0.205,-57.78998 0.0474,-88.82335 0.76037,-93.5 3.10254,-20.34987 18.80778,-37.17589 39.18311,-41.97934 28.15625,-6.63779 56.03184,10.14046 63.31708,38.1104 1.2877,4.94381 1.50788,18.44222 1.50788,92.44255 0,54.42956 -0.37752,88.65649 -1.0152,92.0399 -3.53347,18.74817 -19.37867,35.43527 -38.4848,40.52959 -6.47959,1.72767 -19.54363,1.61695 -26.38768,-0.22365 z m 30.4748,-15.86506 c 8.84654,-4.37219 16.26041,-12.0568 19.59228,-20.30773 l 2.3206,-5.74666 0.30611,-86 c 0.21996,-61.79709 -0.0173,-87.67919 -0.84295,-91.96667 -3.87736,-20.13381 -20.1489,-32.46011 -41.3718,-31.34069 -16.22441,0.85576 -29.05472,10.44213 -33.96569,25.37796 -1.51508,4.60786 -1.64252,13.32319 -1.39645,95.5 l 0.27078,90.4294 2.6604,5.67515 c 3.51771,7.50392 9.49922,13.83178 16.70524,17.67256 7.85197,4.18505 12.21723,5.15474 21.06343,4.67898 6.00457,-0.32293 8.81522,-1.08461 14.65805,-3.9723 z m 93.74824,16.02299 c -13.2272,-3.20789 -28.2213,-15.17189 -33.738,-26.91999 -5.7031,-12.145 -5.685,-11.77977 -5.3738,-108.49142 l 0.2852,-88.66597 2.25,-5.91927 c 6.3493,-16.70373 20.3151,-29.0279 37.481,-33.07516 28.5384,-6.72861 57.3469,11.18403 63.3219,39.37243 2.1276,10.03779 2.063,173.49505 -0.073,183.622 -4.107,19.4751 -18.8544,34.97402 -38.0307,39.96881 -6.956,1.81182 -18.8954,1.86144 -26.123,0.10857 z m 21.456,-12.61617 c 10.9687,-2.53012 22.1657,-11.08627 26.738,-20.43166 4.1819,-8.54749 4.5862,-18.77914 4.2542,-107.66108 l -0.304,-81.36847 -2.3104,-5.74666 c -3.2237,-8.01846 -10.7267,-15.91787 -18.9764,-19.97923 -6.2939,-3.09846 -7.242,-3.27411 -17.6717,-3.27411 -10.4129,0 -11.389,0.18001 -17.6892,3.26201 -7.491,3.66456 -14.2855,10.46104 -18.002,18.00735 l -2.3299,4.73064 v 93 93 l 3.1567,6.03662 c 3.9402,7.53497 10.681,13.83507 18.6866,17.465 8.9093,4.03967 16.0292,4.90157 24.4481,2.95959 z"
       id="path1" /></g></svg>
