<?xml version="1.0" encoding="UTF-8" standalone="no"?>
<!-- Created with Inkscape (http://www.inkscape.org/) -->

<svg
   width="88.851234mm"
   height="224.49934mm"
   viewBox="0 0 335.81569 848.50148"
   version="1.1"
   id="svg1"
   xml:space="preserve"
   xmlns="http://www.w3.org/2000/svg"
   xmlns:svg="http://www.w3.org/2000/svg"><defs
     id="defs1" /><g
     id="layer1"
     transform="translate(499.87589,2686.8228)"><path
       style="fill:#000000"
       d="m -432.99171,-1872.3231 v -34 h 6 6 v 14 14 h 13.5 13.5 v -14 -14 h 6 6 v 34 34 h -6 -6 v -14.4388 -14.4387 l -4.25,-0.6205 c -2.3375,-0.3413 -8.3,-0.451 -13.25,-0.2438 l -9,0.3768 -0.27674,14.6825 -0.27673,14.6825 h -5.97327 -5.97326 z m 60.99408,33.25 c -0.003,-0.4125 4.99668,-15.7125 11.11096,-34 l 11.11688,-33.25 h 7.35385 c 6.39946,0 7.4968,0.2671 8.45525,2.0579 1.5939,2.9783 21.96898,62.8953 21.96898,64.6042 0,1.1157 -1.26263,1.3705 -5.63742,1.1378 l -5.63741,-0.2999 -2.61259,-7.5 -2.61258,-7.5 -13.15175,-0.2784 -13.15174,-0.2783 -2.59826,6.7995 c -1.42904,3.7398 -2.59825,7.3525 -2.59825,8.0284 0,0.8352 -1.92191,1.2288 -6,1.2288 -3.3,0 -6.00267,-0.3375 -6.00592,-0.75 z m 38.98372,-27.5 c -0.0517,-2.9123 -8.80234,-28.1164 -9.28738,-26.75 -1.92085,5.4108 -8.69042,26.6389 -8.69042,27.2514 0,0.4117 4.05,0.7486 9,0.7486 6.54517,0 8.99394,-0.341 8.9778,-1.25 z m 31.0222,-5.7978 v -34.0477 l 6.11678,0.2977 6.11678,0.2978 8.88398,14 c 4.88619,7.7 11.18958,17.9375 14.00752,22.75 2.81794,4.8125 5.24331,8.75 5.38971,8.75 0.1464,0 0.0242,-10.35 -0.27161,-23 l -0.53778,-23 h 6.14731 6.14731 v 34 34 h -5.25 c -5.18622,0 -5.28543,-0.06 -8.16567,-4.75 -1.60362,-2.6116 -7.21336,-11.4982 -12.46609,-19.7482 -5.25274,-8.25 -10.69069,-17.0802 -12.08434,-19.6226 l -2.5339,-4.6225 0.32811,24.3725 0.32811,24.3726 h -6.07811 -6.07811 z m 64.75,33.4854 c -0.4125,-0.424 -0.75,-15.8247 -0.75,-34.2238 v -33.4528 l 15.75,0.5118 c 8.6625,0.2814 17.42613,1.0282 19.47474,1.6595 6.16167,1.8986 11.97378,7.0806 15.27174,13.6159 2.84123,5.6302 3.00352,6.6011 3.00352,17.9694 0,11.5807 -0.12029,12.2621 -3.309,18.7425 -3.45771,7.0272 -7.88536,11.0231 -15.191,13.7098 -3.91456,1.4396 -33.06236,2.6887 -34.25,1.4677 z m 30.57881,-11.8017 c 4.31819,-1.8042 8.35149,-6.7379 9.75407,-11.9314 1.84184,-6.8201 0.7398,-19.4964 -2.14265,-24.646 -3.61409,-6.4568 -7.53155,-8.167 -17.94023,-7.8321 l -8.5,0.2736 -0.27116,20.3932 c -0.33395,25.1148 -0.33693,25.1068 9.32633,25.1068 3.57998,0 7.97812,-0.6139 9.77364,-1.3641 z m -200.32881,-115.6359 v -34 h 2.45294 c 3.74353,0 7.18361,1.9342 8.6441,4.8602 0.94821,1.8997 1.42475,9.5783 1.69982,27.3898 l 0.38223,24.75 h 13.91045 13.91046 v 5.5 5.5 h -20.5 -20.5 z m 50,-0.02 v -34.0203 l 20.75,0.2703 20.75,0.2703 0.30129,5.2222 0.3013,5.2222 -14.3013,0.2778 -14.30129,0.2778 v 8.5 8.5 l 13.75,0.2782 13.75,0.2782 v 4.9436 4.9435 l -13.75,0.2782 -13.75,0.2783 -0.28894,8.75 -0.28893,8.75 12.28893,0.014 c 16.67298,0.019 16.78894,0.061 16.78894,6.1029 v 4.8834 h -21 -21 z m 51.2367,0.2703 0.2633,-33.75 20.75,-0.2703 20.75,-0.2703 v 5.4928 5.4928 l -14.25,0.2775 -14.25,0.2775 v 9 9 l 12.75,0.2798 12.75,0.2799 v 4.9403 4.9402 l -12.75,0.2799 -12.75,0.2799 -0.27822,13.75 -0.27822,13.75 h -6.48508 -6.48509 z m 67.52895,5.5473 -0.26565,-28.2973 -9.25,-0.2876 -9.25,-0.2875 v -5.4796 -5.4797 l 25.20222,0.2672 25.20223,0.2672 0.31757,5.25 0.31758,5.25 h -9.4114 c -9.25005,0 -9.42234,0.044 -10.05036,2.5458 -0.35144,1.4003 -0.59422,14.1128 -0.53952,28.25 l 0.0995,25.7042 -6.05324,0.2973 -6.05324,0.2973 z m -26.26565,-64.416 c -11.32511,-2.8975 -16.79433,-8.1061 -18.93596,-18.0337 -0.66606,-3.0874 -0.59146,-3.166 3.62796,-3.823 2.3694,-0.3689 5.0369,-0.8746 5.92779,-1.1238 1.14688,-0.3207 1.78832,0.3897 2.19707,2.4335 1.49328,7.4664 9.43108,11.8301 18.14058,9.9725 8.26078,-1.7618 11.20859,-9.2947 5.7668,-14.7365 -1.89812,-1.8981 -5.94706,-3.761 -12.80577,-5.8918 -15.03332,-4.6705 -19.86352,-8.6546 -21.03834,-17.3533 -0.49931,-3.697 -0.16142,-5.6456 1.6154,-9.316 2.85129,-5.89 7.65203,-9.0634 16.00447,-10.5792 11.88126,-2.1563 22.31568,1.607 26.64159,9.6087 4.10663,7.596 4.02951,8.1517 -1.34668,9.7047 -4.73904,1.3689 -4.8109,1.3552 -6.16651,-1.1792 -3.81827,-7.1384 -9.42918,-9.7727 -16.84048,-7.9065 -7.15203,1.8009 -9.51324,7.7078 -4.91796,12.3031 1.30347,1.3035 5.91597,3.4993 10.25,4.8795 18.0714,5.7552 21.9221,8.8103 23.43344,18.5918 1.97174,12.7612 -7.00347,21.66 -22.76296,22.5692 -3.73474,0.2154 -7.69044,0.1615 -8.79044,-0.12 z m -167.9348,-1.2758 c -0.30405,-0.492 -0.50989,-15.6035 -0.45741,-33.5811 l 0.0954,-32.6866 17.14839,0.3311 c 16.11445,0.3111 17.41739,0.4818 21.6097,2.8311 13.13111,7.3583 13.44066,26.5384 0.5387,33.3791 -2.2,1.1665 -4.16397,2.2098 -4.36438,2.3186 -0.20041,0.1087 0.84922,1.4587 2.33251,3 1.4833,1.5412 5.38022,7.8648 8.65982,14.0523 l 5.96291,11.25 -6.79543,-0.069 -6.79543,-0.069 -4.5,-8.9951 c -2.475,-4.9473 -5.75638,-10.5246 -7.29194,-12.3939 -2.92329,-3.5587 -7.76414,-5.2254 -11.62112,-4.0012 -1.9685,0.6247 -2.08694,1.368 -2.08694,13.0949 v 12.4327 h -5.94099 c -3.26754,0 -6.18975,-0.4026 -6.49381,-0.8945 z m 32.0348,-38.5055 c 4.49095,-4.491 4.65433,-9.1639 0.48369,-13.8343 -2.85146,-3.1931 -3.10162,-3.2657 -11.25,-3.2657 h -8.33369 l -0.28499,10.25 -0.28498,10.25 h 8.13498 c 7.91822,0 8.22558,-0.091 11.53499,-3.4 z m 24.626,38.15 c 0.24199,-0.6875 5.33657,-15.7625 11.3213,-33.5 l 10.88133,-32.25 h 7.69168 7.69168 l 1.68666,4.75 c 0.92767,2.6125 6.10314,17.6875 11.50105,33.5 l 9.81438,28.75 -6.15704,-0.01 -6.15704,-0.01 -2.28316,-7.5187 -2.28316,-7.5186 -13.60541,0.278 -13.60542,0.278 -2.54178,7.25 -2.54177,7.25 h -5.92664 c -4.3093,0 -5.80657,-0.3411 -5.48666,-1.25 z m 39.35227,-26.5 c -4.82311,-15.1671 -9.47149,-27.4423 -9.94039,-26.25 -1.2558,3.1929 -8.63788,26.4352 -8.63788,27.1961 0,0.4421 4.30532,0.8039 9.56738,0.8039 8.65714,0 9.51445,-0.1665 9.01089,-1.75 z m 30.42173,-5.75 v -33.5 h 6 6 v 33.5 33.5 h -6 -6 z m 81.91967,31.7702 c -0.0442,-0.9736 -0.25953,-16.0577 -0.47856,-33.5202 l -0.39823,-31.75 h 20.97856 20.97856 v 4.9725 4.9725 l -14.25,0.2775 -14.25,0.2775 v 8.5 8.5 l 13.75,0.2782 13.75,0.2782 v 4.9436 4.9435 l -13.75,0.2782 -13.75,0.2783 -0.2931,8.4143 c -0.21097,6.0566 0.0692,8.6442 1,9.2347 0.7112,0.4512 7.50525,0.8272 15.09789,0.8356 l 13.80479,0.015 -0.30479,4.75 -0.30479,4.75 -20.75,0.2703 c -19.26234,0.2509 -20.75576,0.1434 -20.83033,-1.5 z m -182.46513,-131.7248 c -2.44814,-2.4481 -2.45456,-2.5088 -2.4621,-23.25 -0.0131,-35.9598 -1.55654,-40.1989 -22.74333,-62.4629 -14.6811,-15.4276 -23.41138,-27.1835 -30.12266,-40.5622 -8.83578,-17.6138 -12.10431,-29.103 -20.25192,-71.1874 -19.30897,-99.7356 -19.31915,-99.8045 -16.27826,-110.1514 2.57524,-8.7626 7.02384,-13.9711 15.90373,-18.6208 4.1068,-2.1503 6.42911,-2.6352 13,-2.7144 7.06699,-0.085 8.80251,0.2837 14.88113,3.1625 7.85722,3.7211 16.95465,12.4896 22.52091,21.7067 1.87112,3.0984 6.91984,13.7873 11.21938,23.7533 8.08511,18.7406 9.42361,21.1608 10.341,18.6984 0.2904,-0.7795 0.64265,-47.3408 0.78279,-103.4697 l 0.25479,-102.0525 3.77234,-7.6322 c 4.14445,-8.385 9.74543,-14.1138 17.56531,-17.9661 3.88131,-1.912 6.25379,-2.2943 14.16235,-2.2819 8.39669,0.013 10.10586,0.3324 14.71675,2.75 2.86922,1.5043 5.63552,2.7352 6.14735,2.7352 0.51182,0 1.45082,-2.9874 2.08666,-6.6387 2.16534,-12.4343 10.11724,-23.5355 20.69953,-28.8974 5.26319,-2.6668 6.80222,-2.9639 15.34971,-2.9639 8.07622,0 10.24935,0.3692 14.5,2.4636 12.89663,6.3544 22.5,22.8669 22.5,38.6874 0,2.877 0.40217,5.4795 0.89372,5.7833 0.49154,0.3038 3.52904,-0.6822 6.75,-2.191 7.80741,-3.6573 20.28439,-3.9066 27.58107,-0.551 10.42513,4.7944 17.28817,12.7534 20.79914,24.1206 1.6646,5.3893 1.97607,9.2971 1.97607,24.7924 0,13.392 0.31861,18.3947 1.17154,18.3947 0.64434,0 4.11437,-1.1774 7.71116,-2.6163 5.58593,-2.2347 7.64273,-2.5524 14.10381,-2.1784 13.22422,0.7656 23.48832,7.9181 29.79737,20.7642 l 2.71612,5.5305 0.31183,114.5 c 0.33555,123.2052 0.31306,123.8652 -4.89948,143.7735 -3.9882,15.2322 -12.15188,35.2334 -16.41878,40.2265 -2.19292,2.5661 -10.21782,17.6628 -12.61119,23.7246 -2.15466,5.4572 -2.31062,7.5292 -2.83132,37.6155 l -0.55106,31.84 -2.36079,1.91 c -3.23695,2.6187 -6.33568,2.3938 -9.2149,-0.669 l -2.42431,-2.5788 -0.32174,-27.1712 c -0.45798,-38.6778 0.77573,-44.6738 13.69139,-66.5423 11.60047,-19.6417 15.41791,-28.8065 20.39258,-48.958 2.1161,-8.572 2.14426,-10.0174 2.47026,-126.7612 l 0.32975,-118.0904 -3.28112,-4.8878 c -7.87728,-11.7346 -21.1604,-12.8013 -32.1204,-2.5795 -5.82158,5.4295 -5.66072,3.7914 -5.66072,57.6481 0,54.0226 -0.0519,54.5432 -5.57098,55.9284 -3.24137,0.8136 -7.12523,-1.4992 -8.47366,-5.0458 -0.57837,-1.5213 -0.95536,-34.2083 -0.95536,-82.8335 v -80.3208 l -2.75,-5.2265 c -3.84584,-7.3092 -9.5576,-11.2518 -17.09002,-11.7966 -6.75775,-0.4889 -11.66167,1.5348 -16.8593,6.9571 -6.57227,6.8564 -6.30068,3.2203 -6.30068,84.3552 0,80.1548 0.11652,78.4834 -5.57098,79.9109 -3.24137,0.8136 -7.12523,-1.4992 -8.47366,-5.0458 -0.58226,-1.5315 -0.95536,-38.7922 -0.95536,-95.4102 0,-91.0972 -0.0396,-93.0032 -2.04277,-98.3572 -2.15126,-5.7498 -7.80971,-11.842 -12.75951,-13.7377 -1.48375,-0.5682 -5.06911,-1.0574 -7.96747,-1.0871 -7.85051,-0.08 -13.71212,3.8612 -17.96774,12.082 l -3.26251,6.3023 v 93.9581 93.9581 l -2.45455,2.4545 c -2.66201,2.662 -4.60773,3.0268 -7.60084,1.4249 -5.03299,-2.6936 -4.94461,-1.1771 -4.94461,-84.8429 v -77.972 l -3.28453,-4.3063 c -4.89032,-6.4116 -11.49825,-10.1349 -17.98716,-10.1349 -8.26151,0 -14.96027,4.1388 -19.07563,11.7858 l -2.15268,4 -0.5,121.5445 c -0.47282,114.9356 -0.598,121.6941 -2.3023,124.2946 -2.12694,3.2455 -5.88927,4.9019 -9.22978,4.0635 -3.92696,-0.9857 -7.19297,-5.1309 -10.03132,-12.7318 -9.49643,-25.431 -24.9244,-63.0485 -27.5667,-67.2149 -8.04745,-12.6895 -16.50536,-19.4282 -24.40801,-19.4466 -5.72997,-0.013 -12.56728,3.7007 -14.71034,7.9907 -2.71161,5.428 -2.15124,12.2884 3.30814,40.5 2.76728,14.3 5.88537,30.5 6.92909,36 11.38466,59.9922 14.15843,72.1047 19.68735,85.9707 7.26938,18.231 13.24396,26.9993 32.45781,47.6354 24.33705,26.1385 27.37225,34.5189 26.71992,73.7759 -0.34852,20.974 -0.38949,21.3242 -2.71465,23.2067 -3.21021,2.599 -6.74044,2.4009 -9.68467,-0.5433 z"
       id="path2" /></g></svg>
