<?xml version="1.0" encoding="UTF-8" standalone="no"?>
<!-- Uploaded to: SVG Repo, www.svgrepo.com, Generator: SVG Repo Mixer Tools -->

<svg
   version="1.1"
   id="Uploaded to svgrepo.com"
   width="499.99994"
   height="799.99921"
   viewBox="0 0 19.999998 31.999968"
   xml:space="preserve"
   xmlns="http://www.w3.org/2000/svg"
   xmlns:svg="http://www.w3.org/2000/svg"><defs
   id="defs1" />
<style
   type="text/css"
   id="style1">
	.feather_een{fill:#0B1719;}
</style>
<path
   class="feather_een"
   d="m 3.0000006,2.6429687 v 8.3569993 l -1.536,1.536 c -0.93699998,0.937 -1.46399997827794,2.209 -1.46399997827794,3.535 v 2.858 c 0,1.326 0.52699999827794,2.598 1.46399997827794,3.536 l 1.536,1.535 v 1 c -0.552,0 -1,0.448 -1,1 v 5 c 0,0.552 0.448,1 1,1 H 18.000001 c 0.552,0 1,-0.448 1,-1 v -5 c 0,-0.552 -0.448,-1 -1,-1 v -1 l 0.536,-0.536 c 0.937,-0.937 1.464,-2.209 1.464,-3.535 v -7.929 c 0,-1.657 -1.343,-2.9999993 -3,-2.9999993 H 8.0000008 v -6.5 c 0,-1.466 -1.261,-2.63700002 -2.758,-2.48700002 -1.301,0.13 -2.2420002,1.32200002 -2.2420002,2.63000002 z M 18.000001,25.999968 v 5 H 3.0000006 v -5 z M 5.6970008,1.0129687 c 0.756,0.097 1.303,0.777 1.303,1.539 v 8.9479993 c 0,0.276 0.224,0.5 0.5,0.5 0.276,0 0.5,-0.224 0.5,-0.5 V 9.9999679 h 3.0000002 v 1.5000001 c 0,0.276 0.224,0.5 0.5,0.5 0.276,0 0.5,-0.224 0.5,-0.5 V 9.9999679 h 3 v 1.5000001 c 0,0.276 0.224,0.5 0.5,0.5 0.276,0 0.5,-0.224 0.5,-0.5 V 9.9999679 h 1 c 1.105,0 2,0.8950001 2,2.0000001 v 7.929 c 0,1.061 -0.421,2.078 -1.172,2.829 l -0.828,0.828 v 1.414 H 4.0000008 v -1.414 l -1.8280002,-1.828 c -0.751,-0.751 -1.172,-1.768 -1.172,-2.829 v -2.858 c 0,-1.061 0.421,-2.078 1.172,-2.828 l 1.8280002,-1.829 V 2.4999687 c 0,-0.892 0.783,-1.60500002 1.697,-1.487 z"
   id="path1" />
</svg>
