<?xml version="1.0" encoding="UTF-8" standalone="no"?>
<!-- Created with Inkscape (http://www.inkscape.org/) -->

<svg
   width="100.33937mm"
   height="160.68825mm"
   viewBox="0 0 379.23539 607.32568"
   version="1.1"
   id="svg1"
   xml:space="preserve"
   xmlns="http://www.w3.org/2000/svg"
   xmlns:svg="http://www.w3.org/2000/svg"><defs
     id="defs1" /><g
     id="layer1"
     transform="translate(-1463.8691,2933.6126)"><path
       style="fill:#000000"
       d="m 1644.9466,-2328.7255 c -1.9862,-2.1142 -2.4154,-4.2916 -3.6961,-18.75 -1.8746,-21.1626 -2.8671,-25.8267 -6.7242,-31.598 -3.289,-4.9214 -4.387,-5.7205 -29.2094,-21.2597 l -13.5776,-8.4997 -49.8636,-49.5003 c -35.4365,-35.1783 -51.0494,-51.3601 -53.9619,-55.9281 -4.7785,-7.495 -7.6191,-15.9847 -8.9801,-26.8383 -1.7383,-13.8635 -3.4212,-20.0729 -10.6921,-39.4508 -4.6654,-12.4337 -5.3585,-17.84 -3.2076,-25.0189 2.5541,-8.5248 16.2082,-19.7351 24.0612,-19.7548 2.0625,-0.01 3.7451,-0.1219 3.7392,-0.2594 -0.01,-0.1375 -0.681,-2.459 -1.5,-5.1589 -3.0871,-10.1761 -2.4713,-12.632 8.5825,-34.2311 18.5157,-36.1799 14.8378,-32.7653 68.8156,-63.889 15.063,-8.6853 30.7285,-17.089 34.8123,-18.6747 15.0488,-5.8435 24.415,-4.786 41.3004,4.6628 12.387,6.9316 24,12.7225 24,11.9677 0,-0.3291 -15.5978,-24.0723 -34.6617,-52.7626 -51.9688,-78.2104 -50.0379,-74.9783 -52.3244,-87.5876 -1.3654,-7.5297 0.7196,-18.4937 4.7597,-25.0284 3.4175,-5.5277 11.091,-11.4952 17.552,-13.6499 6.7858,-2.2629 17.6893,-1.5796 24.012,1.5049 4.0161,1.9593 7.0879,5.1819 18.0901,18.9784 12.8269,16.0848 42.3653,53.4704 46.5647,58.9353 l 2.0618,2.6831 -0.5523,-4.5 c -0.3038,-2.475 -2.3806,-17.55 -4.6151,-33.5 -4.7219,-33.7045 -4.7739,-40.1225 -0.398,-49.0667 10.1936,-20.835 34.2578,-24.9751 51.488,-8.8582 2.9636,2.7722 6.2591,7.2305 7.9977,10.8199 3.2303,6.6689 5.4313,18.6714 12.9757,70.7571 4.5931,31.7107 9.9503,66.8792 10.4113,68.3479 0.1727,0.55 0.6324,-0.688 1.0217,-2.7512 0.8963,-4.7497 14.1105,-53.3619 15.4551,-56.8554 1.3205,-3.4313 10.0253,-9.7471 15.8499,-11.5001 2.5463,-0.7663 8.295,-1.3933 12.7749,-1.3933 7.2667,0 8.6377,0.3123 12.71,2.8949 8.404,5.3296 13.0652,13.7378 13.0859,23.6051 0.01,3.3 -1.603,14.775 -3.5776,25.5 -13.219,71.8011 -23.828,131.9185 -31.7646,180 -0.7272,4.4056 -0.9516,34.5337 -0.6963,93.5 0.3357,77.561 0.569,88.1392 2.1503,97.5 2.7281,16.1496 13.2418,68.6496 15.5884,77.8402 2.2577,8.8425 1.9583,10.7033 -2.1895,13.6085 -3.0451,2.133 -5.1989,1.9464 -8.2973,-0.7187 -3.1767,-2.7325 -4.9642,-9.5916 -12.9598,-49.73 -9.5907,-48.1455 -8.7712,-35.8614 -9.5066,-142.5 -0.7834,-113.6125 0.2838,-104.0932 -13.5008,-120.4273 -9.5565,-11.3241 -14.7835,-16.0258 -22.5634,-20.2959 -5.4529,-2.9929 -37.446,-20.6174 -74.9418,-41.2843 -5.225,-2.8799 -19.9553,-10.5332 -32.7341,-17.0072 -28.2214,-14.2977 -28.4401,-14.3339 -43.2659,-7.1532 -12.4854,6.0471 -68.3762,38.5339 -72.9408,42.3972 -2.4184,2.0468 -6.6363,8.7431 -13.1591,20.8915 -13.1354,24.4638 -14.1833,26.8134 -13.4492,30.1558 1.8152,8.2647 8.0363,13.2259 16.5491,13.1977 8.983,-0.03 12.4915,-2.314 23.2249,-15.1206 18.1343,-21.637 18.8779,-22.1158 50.988,-32.8317 l 21.713,-7.2462 17.287,11.4676 c 20.0345,13.2901 34.0855,22.3897 45.0776,29.1927 19.4021,12.0078 23.8445,33.2005 11.9616,57.0639 -5.2389,10.521 -11.03,18.0952 -21.4561,28.0626 -17.5441,16.7723 -30.9753,25.4848 -46.296,30.0312 -7.728,2.2933 -21.7897,2.3298 -30.5,0.079 -6.6806,-1.7262 -26.5792,-10.9786 -42.5,-19.7617 l -9,-4.965 -3.8923,-8.7232 c -2.1407,-4.7977 -7.7561,-16.079 -12.4786,-25.0695 -7.786,-14.8227 -8.9611,-16.5343 -12.6077,-18.3642 -2.2118,-1.1098 -5.4226,-3.0677 -7.1352,-4.3507 -4.2343,-3.1722 -15.3234,-5.1217 -19.4382,-3.4172 -3.7284,1.5443 -7.948,6.4468 -7.948,9.2342 0,1.1564 2.9222,10.7248 6.4938,21.2633 4.9606,14.6369 6.9697,22.3105 8.5092,32.5012 1.2886,8.5295 2.9203,15.3169 4.5247,18.8212 2.1356,4.6649 10.0118,12.9593 52.8994,55.7088 27.7146,27.6254 52.3437,51.5542 54.7315,53.1752 2.3878,1.6211 10.1914,6.4498 17.3414,10.7305 13.6571,8.1764 21.9465,15.2482 26.0409,22.2156 3.3797,5.7511 5.0155,13.8621 6.9569,34.4946 1.6927,17.9889 1.4592,20.8272 -1.8975,23.0685 -2.3745,1.5855 -7.2685,0.7474 -9.4989,-1.6267 z m -24.8046,-210.0971 c 13.1453,-3.4239 26.5623,-12.4921 41.9461,-28.3502 18.3491,-18.9148 24.7179,-36.1131 18.3985,-49.6836 -2.1248,-4.563 -3.4287,-5.7154 -14.2402,-12.5856 -6.5457,-4.1594 -20.8406,-13.3473 -31.7664,-20.4175 l -19.8652,-12.8548 -17.6348,5.8234 c -9.6992,3.2029 -19.3141,6.6685 -21.3665,7.7014 -2.3967,1.2061 -8.5576,7.5356 -17.2216,17.6926 -13.4962,15.822 -18.2292,19.7768 -25.7967,21.5553 -1.5125,0.3554 -2.75,1.0298 -2.75,1.4986 0,0.4688 2.1998,4.8477 4.8886,9.7309 2.6887,4.8833 8.3694,15.8658 12.6238,24.4056 l 7.7352,15.527 17.7288,9.2128 c 9.7509,5.0669 20.3827,9.8548 23.6262,10.6396 7.8204,1.8923 16.6804,1.9314 23.6942,0.1045 z m 189.1818,-175.0109 c 2.9865,-16.5 8.3755,-46.1974 11.9757,-65.9943 3.6001,-19.7969 6.5457,-37.7438 6.5457,-39.882 0,-2.2278 -0.9143,-5.3669 -2.1414,-7.3524 l -2.1414,-3.4649 -8.1542,0.3468 c -13.1079,0.5575 -11.7041,-1.8413 -22.5254,38.4925 -5.1432,19.1699 -10.2597,37.7063 -11.3701,41.192 l -2.0189,6.3377 2.2769,9.6623 c 4.0378,17.1349 17.1074,69.6147 17.7222,71.1623 0.3278,0.825 1.4521,-3.45 2.4985,-9.5 1.0464,-6.05 4.346,-24.5 7.3324,-41 z m -35.3937,11.9332 c -17.1016,-69.583 -17.0013,-69.0656 -29.6448,-152.9332 -3.6483,-24.2 -7.3284,-45.9816 -8.178,-48.4036 -1.8903,-5.3882 -7.0775,-11.3064 -11.9272,-13.6077 -7.8105,-3.7063 -17.0835,0.229 -21.3611,9.0654 -1.8634,3.8493 -2.1422,5.7071 -1.6923,11.2772 0.5835,7.225 7.4153,57.0288 10.9275,79.6616 l 2.1714,13.9928 11.2737,14.8899 c 10.2081,13.4823 11.8557,16.2715 17.4295,29.5071 7.4682,17.7341 23.0124,52.9369 29.4156,66.6173 2.5742,5.5 5.1026,11.0749 5.6186,12.3887 2.63,6.6966 1.268,-0.8875 -4.0329,-22.4555 z m -17.4374,12.4373 c -4.279,-9.1553 -16.9111,-37.7988 -24.8113,-56.2597 -3.269,-7.6392 -7.0167,-15.9642 -8.3283,-18.5 -2.9075,-5.622 -19.6648,-27.5614 -55.0781,-72.1108 -7.2139,-9.075 -20.1837,-25.5 -28.8218,-36.5 -9.1947,-11.7088 -17.0262,-20.7254 -18.8912,-21.75 -4.3229,-2.3748 -8.5532,-2.199 -13.7955,0.5732 -8.1415,4.3054 -12.3191,17.0024 -8.5568,26.0069 0.7505,1.7962 6.0667,10.4442 11.8138,19.2178 5.747,8.7737 18.1161,27.6521 27.4868,41.9521 9.3707,14.3 21.2243,32.525 26.3413,40.5 5.117,7.975 14.6178,22.6 21.1129,32.5 l 11.8092,18 10.2857,5.7733 c 18.827,10.5672 52.2816,28.5432 52.5819,28.2535 0.1629,-0.1572 -1.254,-3.6025 -3.1486,-7.6563 z"
       id="path4" /></g></svg>
