<?xml version="1.0" encoding="UTF-8" standalone="no"?>
<!-- Created with Inkscape (http://www.inkscape.org/) -->

<svg
   width="88.851234mm"
   height="140.33632mm"
   viewBox="0 0 335.81569 530.405"
   version="1.1"
   id="svg1"
   xml:space="preserve"
   xmlns="http://www.w3.org/2000/svg"
   xmlns:svg="http://www.w3.org/2000/svg"><defs
     id="defs1" /><g
     id="layer1"
     transform="translate(499.87589,2686.8227)"><path
       style="fill:#000000"
       d="m -406.53717,-2158.7774 c -2.44814,-2.4481 -2.45456,-2.5088 -2.4621,-23.25 -0.0131,-35.9598 -1.55654,-40.1989 -22.74333,-62.4629 -14.6811,-15.4276 -23.41138,-27.1835 -30.12266,-40.5622 -8.83578,-17.6138 -12.10431,-29.103 -20.25192,-71.1874 -19.30897,-99.7356 -19.31915,-99.8045 -16.27826,-110.1514 2.57524,-8.7626 7.02384,-13.9711 15.90373,-18.6208 4.1068,-2.1503 6.42911,-2.6352 13,-2.7144 7.06699,-0.085 8.80251,0.2837 14.88113,3.1625 7.85722,3.7211 16.95465,12.4896 22.52091,21.7067 1.87112,3.0984 6.91984,13.7873 11.21938,23.7533 8.08511,18.7406 9.42361,21.1608 10.341,18.6984 0.2904,-0.7795 0.64265,-47.3408 0.78279,-103.4697 l 0.25479,-102.0525 3.77234,-7.6322 c 4.14445,-8.385 9.74543,-14.1138 17.56531,-17.9661 3.88131,-1.912 6.25379,-2.2943 14.16235,-2.2819 8.39669,0.013 10.10586,0.3324 14.71675,2.75 2.86922,1.5043 5.63552,2.7352 6.14735,2.7352 0.51182,0 1.45082,-2.9874 2.08666,-6.6387 2.16534,-12.4343 10.11724,-23.5355 20.69953,-28.8974 5.26319,-2.6668 6.80222,-2.9639 15.34971,-2.9639 8.07622,0 10.24935,0.3692 14.5,2.4636 12.89663,6.3544 22.5,22.8669 22.5,38.6874 0,2.877 0.40217,5.4795 0.89372,5.7833 0.49154,0.3038 3.52904,-0.6822 6.75,-2.191 7.80741,-3.6573 20.28439,-3.9066 27.58107,-0.551 10.42513,4.7944 17.28817,12.7534 20.79914,24.1206 1.6646,5.3893 1.97607,9.2971 1.97607,24.7924 0,13.392 0.31861,18.3947 1.17154,18.3947 0.64434,0 4.11437,-1.1774 7.71116,-2.6163 5.58593,-2.2347 7.64273,-2.5524 14.10381,-2.1784 13.22422,0.7656 23.48832,7.9181 29.79737,20.7642 l 2.71612,5.5305 0.31183,114.5 c 0.33555,123.2052 0.31306,123.8652 -4.89948,143.7735 -3.9882,15.2322 -12.15188,35.2334 -16.41878,40.2265 -2.19292,2.5661 -10.21782,17.6628 -12.61119,23.7246 -2.15466,5.4572 -2.31062,7.5292 -2.83132,37.6155 l -0.55106,31.84 -2.36079,1.91 c -3.23695,2.6187 -6.33568,2.3938 -9.2149,-0.669 l -2.42431,-2.5788 -0.32174,-27.1712 c -0.45798,-38.6778 0.77573,-44.6738 13.69139,-66.5423 11.60047,-19.6417 15.41791,-28.8065 20.39258,-48.958 2.1161,-8.572 2.14426,-10.0174 2.47026,-126.7612 l 0.32975,-118.0904 -3.28112,-4.8878 c -7.87728,-11.7346 -21.1604,-12.8013 -32.1204,-2.5795 -5.82158,5.4295 -5.66072,3.7914 -5.66072,57.6481 0,54.0226 -0.0519,54.5432 -5.57098,55.9284 -3.24137,0.8136 -7.12523,-1.4992 -8.47366,-5.0458 -0.57837,-1.5213 -0.95536,-34.2083 -0.95536,-82.8335 v -80.3208 l -2.75,-5.2265 c -3.84584,-7.3092 -9.5576,-11.2518 -17.09002,-11.7966 -6.75775,-0.4889 -11.66167,1.5348 -16.8593,6.9571 -6.57227,6.8564 -6.30068,3.2203 -6.30068,84.3552 0,80.1548 0.11652,78.4834 -5.57098,79.9109 -3.24137,0.8136 -7.12523,-1.4992 -8.47366,-5.0458 -0.58226,-1.5315 -0.95536,-38.7922 -0.95536,-95.4102 0,-91.0972 -0.0396,-93.0032 -2.04277,-98.3572 -2.15126,-5.7498 -7.80971,-11.842 -12.75951,-13.7377 -1.48375,-0.5682 -5.06911,-1.0574 -7.96747,-1.0871 -7.85051,-0.08 -13.71212,3.8612 -17.96774,12.082 l -3.26251,6.3023 v 93.9581 93.9581 l -2.45455,2.4545 c -2.66201,2.662 -4.60773,3.0268 -7.60084,1.4249 -5.03299,-2.6936 -4.94461,-1.1771 -4.94461,-84.8429 v -77.972 l -3.28453,-4.3063 c -4.89032,-6.4116 -11.49825,-10.1349 -17.98716,-10.1349 -8.26151,0 -14.96027,4.1388 -19.07563,11.7858 l -2.15268,4 -0.5,121.5445 c -0.47282,114.9356 -0.598,121.6941 -2.3023,124.2946 -2.12694,3.2455 -5.88927,4.9019 -9.22978,4.0635 -3.92696,-0.9857 -7.19297,-5.1309 -10.03132,-12.7318 -9.49643,-25.431 -24.9244,-63.0485 -27.5667,-67.2149 -8.04745,-12.6895 -16.50536,-19.4282 -24.40801,-19.4466 -5.72997,-0.013 -12.56728,3.7007 -14.71034,7.9907 -2.71161,5.428 -2.15124,12.2884 3.30814,40.5 2.76728,14.3 5.88537,30.5 6.92909,36 11.38466,59.9922 14.15843,72.1047 19.68735,85.9707 7.26938,18.231 13.24396,26.9993 32.45781,47.6354 24.33705,26.1385 27.37225,34.5189 26.71992,73.7759 -0.34852,20.974 -0.38949,21.3242 -2.71465,23.2067 -3.21021,2.599 -6.74044,2.4009 -9.68467,-0.5433 z"
       id="path2" /></g></svg>
