<?xml version="1.0" encoding="UTF-8" standalone="no"?>
<!-- Created with Inkscape (http://www.inkscape.org/) -->

<svg
   width="166.40866mm"
   height="208.99486mm"
   viewBox="0 0 628.94613 789.90185"
   version="1.1"
   id="svg1"
   xml:space="preserve"
   xmlns="http://www.w3.org/2000/svg"
   xmlns:svg="http://www.w3.org/2000/svg"><defs
     id="defs1" /><g
     id="layer1"
     transform="translate(1655.5788,2405.4037)"><path
       style="fill:#000000"
       d="m -1490.4404,-1617.6055 c -2.9488,-1.1326 -7.0865,-3.7844 -9.1949,-5.8928 -6.3001,-6.3001 -6.9436,-10.1158 -6.9436,-41.1728 v -26.8662 l 6.0826,0.2977 6.0826,0.2977 0.1674,25.5 c 0.1561,23.7761 0.3092,25.7704 2.2649,29.5 2.6813,5.1131 6.9364,7.5679 14.1581,8.1679 4.6816,0.389 6.5632,0.047 10.1704,-1.8453 7.774,-4.0795 8.074,-5.3819 8.074,-35.057 v -25.7656 h 6.5696 6.5696 l -0.3196,28.25 c -0.303,26.7778 -0.4331,28.462 -2.4972,32.3182 -3.1585,5.9007 -9.3559,11.0673 -15.4443,12.8754 -7.4534,2.2134 -19.1123,1.9384 -25.7396,-0.6072 z m 244.2468,0.6012 c -2.263,-0.8327 -5.9816,-3.1121 -8.2635,-5.0653 -4.0544,-3.4704 -10.1218,-11.342 -10.1218,-13.1315 0,-0.4944 2.2147,-1.9363 4.9217,-3.2041 l 4.9217,-2.3052 6.3283,6.5615 c 5.5526,5.7572 6.9097,6.6455 11.0716,7.2468 6.8195,0.9852 11.2019,-0.1509 15.2278,-3.9478 4.0943,-3.8614 4.5152,-7.0684 1.4406,-10.9771 -2.8021,-3.5623 -5.4328,-4.7751 -18.7101,-8.6257 -16.9303,-4.91 -22.2286,-9.8406 -22.1797,-20.6403 0.063,-14.027 11.207,-22.1715 28.9314,-21.1455 5.9701,0.3456 8.7771,1.0693 12.9438,3.3371 5.1882,2.8238 12.4263,9.9891 11.8468,11.7277 -0.1593,0.4779 -2.4022,2.0307 -4.9842,3.4506 l -4.6945,2.5817 -4.1409,-4.1409 c -4.7353,-4.7353 -10.268,-6.6585 -16.6421,-5.7848 -5.3579,0.7344 -7.9178,2.3312 -9.3743,5.8475 -1.5239,3.6789 0.1593,7.7955 4.1517,10.1538 1.6362,0.9665 8.1527,3.2495 14.4812,5.0733 6.3285,1.8238 13.3355,4.5265 15.5711,6.006 5.652,3.7403 8.2325,9.7943 7.7052,18.0765 -0.5067,7.9568 -3.8331,13.0625 -11.1086,17.0503 -4.6066,2.5249 -6.3641,2.8846 -15.2085,3.1121 -7.0071,0.1803 -11.2315,-0.1959 -14.1147,-1.2567 z m 105.0938,-0.1831 c -7.2346,-2.5822 -10.6862,-5.3944 -14.0301,-11.4309 l -2.949,-5.3236 -0.3071,-28.25 -0.3072,-28.25 h 6.5572 6.5571 v 25.5398 c 0,23.4216 0.1631,25.8596 1.9665,29.3946 5.5109,10.8023 25.0542,10.5242 30.5335,-0.4344 1.8122,-3.6244 2.0293,-6.3711 2.3124,-29.25 l 0.3124,-25.25 h 5.9376 5.9376 l -0.044,27.25 c -0.047,29.138 -0.3999,31.7098 -5.2187,38.0276 -1.3733,1.8005 -4.9135,4.5956 -7.8672,6.2113 -4.6886,2.5647 -6.5761,2.977 -14.8702,3.2477 -7.2122,0.2353 -10.7092,-0.1216 -14.5209,-1.4821 z m -488.4791,0.033 -3.5,-0.3768 0.2783,-30.4551 0.2783,-30.4551 h -9.9465 c -5.4706,0 -10.6583,-0.2731 -11.5283,-0.607 -1.1718,-0.4496 -1.5818,-2.0047 -1.5818,-6 v -5.393 l 26.75,-0.099 c 14.7125,-0.055 27.9875,-0.21 29.5,-0.3455 2.7145,-0.2432 2.75,-0.1709 2.75,5.5992 v 5.8455 h -12 -12 v 31.5 31.5 l -2.75,-0.1681 c -1.5125,-0.093 -4.325,-0.3376 -6.25,-0.5449 z m 46.4557,-0.5418 c -0.2648,-0.6901 -0.3632,-17.4526 -0.2186,-37.25 l 0.2629,-35.9952 6.2244,-0.297 6.2243,-0.2971 0.2757,15.7971 0.2756,15.797 17.25,0.2736 17.25,0.2737 v -15.5237 -15.5236 h 6.6245 6.6246 l -0.4417,36.75 -0.4416,36.75 -6.1829,0.2978 -6.1829,0.2977 v -16.0477 -16.0478 h -17.5 -17.5 v 16 16 h -6.0314 c -3.9149,0 -6.2004,-0.4403 -6.5129,-1.2548 z m 154.211,0.5882 c -0.3667,-0.3667 -0.6667,-17.2417 -0.6667,-37.5 v -36.8334 h 7.3775 c 4.7207,0 7.7252,0.4502 8.3427,1.25 0.5308,0.6875 5.7956,12.05 11.6994,25.25 5.9039,13.2 11.0618,24.3396 11.462,24.7546 0.4001,0.415 4.3924,-7.46 8.8717,-17.5 4.4793,-10.04 9.7559,-21.7421 11.7257,-26.0046 l 3.5815,-7.75 h 7.9698 7.9697 v 37.5 37.5 h -6 -6 v -26.5 c 0,-14.575 -0.369,-26.5 -0.8201,-26.5 -0.451,0 -5.707,10.8 -11.6799,24 l -10.8599,24 -4.0701,-0.035 -4.07,-0.034 -10.8781,-23.9654 c -5.9829,-13.181 -11.2704,-23.9655 -11.75,-23.9655 -0.4795,0 -0.8719,11.925 -0.8719,26.5 v 26.5 h -5.3333 c -2.9334,0 -5.6334,-0.3 -6,-0.6666 z m 96.3333,-36.86 v -37.7286 l 19.7852,0.4342 c 18.6695,0.4098 20.0371,0.5721 24.25,2.8776 5.5722,3.0495 8.9648,9.1783 8.9648,16.1952 0,5.7865 -2.7979,11.7669 -6.4094,13.6997 -2.8505,1.5256 -3.4127,3.0485 -1.1254,3.0485 2.4141,0 8.7208,6.2013 10.6698,10.4915 3.3464,7.3662 1.9614,16.0872 -3.3752,21.2522 -6.1695,5.9711 -9.1,6.6173 -32.0098,7.0587 l -20.75,0.3997 z m 35.1265,25.5081 c 10.8191,-3.0052 12.5442,-14.8666 2.8735,-19.7572 -3.971,-2.0082 -5.7343,-2.2433 -15,-2 l -10.5,0.2757 -0.2884,9.9289 c -0.1586,5.4608 -0.06,10.5233 0.2186,11.25 0.6228,1.623 17.1495,1.8434 22.6963,0.3026 z m 2.4623,-35.2872 c 3.2975,-3.8371 3.308,-9.8883 0.023,-13.1734 -2.9607,-2.9607 -6.855,-3.7176 -17.1118,-3.3262 l -8,0.3053 -0.2872,9.837 -0.2873,9.837 11.626,-0.337 c 11.3151,-0.328 11.6906,-0.412 14.0373,-3.1427 z m 213.649,10.0557 0.2622,-37.25 18.5,0.055 c 17.6843,0.052 18.7465,0.1679 24.0905,2.6217 3.0748,1.4118 6.4935,3.8622 7.5971,5.4453 6.4746,9.2878 5.4583,22.2904 -2.3115,29.5747 -5.3791,5.0431 -11.7173,7.0386 -24.0901,7.5846 l -11.286,0.498 v 14.3605 14.3606 h -6.5122 -6.5122 z m 36.4422,-5.3406 c 1.551,-1.1498 3.4879,-3.9821 4.3043,-6.294 1.378,-3.9021 1.3421,-4.4691 -0.5,-7.9094 -2.963,-5.5337 -7.1868,-7.2026 -18.2343,-7.2044 h -9.25 v 12.091 12.091 l 10.43,-0.341 c 8.6752,-0.2836 10.9044,-0.6927 13.25,-2.4316 z m -337.8887,-163.4724 c -40.8281,-2.8319 -74.5503,-13.8828 -107.3103,-35.166 -11.2669,-7.3197 -20.0597,-11.969 -25.981,-13.7376 -2.5846,-0.772 -18.1542,-1.4757 -44,-1.9886 -34.8374,-0.6915 -40.5808,-1.0245 -44.5,-2.5802 -9.8864,-3.9244 -17.6553,-12.1973 -20.5233,-21.8548 -2.243,-7.5533 -2.2127,-214.7685 0.033,-222.3292 2.2819,-7.6837 7.1935,-14.2921 13.3564,-17.9704 9.8675,-5.8894 14.0692,-6.3089 63.3317,-6.3221 48.0259,-0.013 49.5686,-0.1568 60.6712,-5.6619 8.9843,-4.4548 21.8303,-18.1662 34.0428,-36.336 10.9896,-16.3505 19.9479,-28.0541 34.054,-44.4902 17.863,-20.8135 22.3751,-27.2039 34.2452,-48.5 17.2024,-30.8627 18.6109,-35.3969 24.6972,-79.5 2.2878,-16.5782 4.7081,-23.646 10.2553,-29.948 4.4305,-5.0332 13.4214,-11.5526 20.1372,-14.6015 8.3016,-3.7688 20.6845,-1.9447 35.6997,5.2591 11.7293,5.6272 19.3062,13.4002 25.5267,26.187 6.5913,13.5493 8.4436,23.5353 8.4602,45.6095 0.03,39.2634 -6.0298,67.501 -23.3796,108.955 -6.3345,15.1349 -6.4363,15.5197 -4.8282,18.242 0.9035,1.5296 3.1349,3.2735 4.9587,3.8754 2.1759,0.7181 27.6327,1.3684 74.0391,1.8915 78.1396,0.8808 76.7209,0.763 90.8209,7.5448 12.8406,6.1761 22.614,18.5542 25.4549,32.2392 0.6847,3.2981 1.0037,10.3469 0.7584,16.7567 -0.3764,9.8342 -0.7746,11.8143 -3.5827,17.815 -4.6241,9.8813 -8.9176,15.3147 -15.5019,19.6168 l -5.8466,3.8202 3.5008,2.1635 c 8.4796,5.2407 17.2555,17.74 20.0864,28.6088 1.9374,7.4382 1.9673,23.2434 0.058,30.4197 -3.7536,14.105 -12.4459,25.9417 -22.2963,30.3623 l -5.8726,2.6355 5.6468,5.8067 c 10.0961,10.3819 13.5294,20.786 12.7579,38.6608 -0.5586,12.9424 -2.6094,19.4128 -9.4412,29.7881 -5.5252,8.3909 -12.0113,14.2165 -20.07,18.0261 l -6.2507,2.955 2.0838,2.9265 c 6.0088,8.4386 8.3634,24.2884 5.512,37.1046 -4.3945,19.7528 -22.4446,36.3497 -46.0943,42.3833 -6.4465,1.6447 -14.3543,1.8001 -100,1.9657 -51.15,0.099 -98.269,-0.1856 -104.7088,-0.6323 z m 204.7087,-21.8016 c 9.6054,-3.2363 14.572,-6.3396 20.4645,-12.7869 6.8005,-7.4408 9.8318,-16.7582 8.1602,-25.0819 -1.3751,-6.8467 -3.5507,-10.6866 -8.1704,-14.4201 -6.0076,-4.8552 -13.5588,-5.8094 -46.1276,-5.8291 l -28.6733,-0.017 -2.9675,-2.4971 c -3.7786,-3.1794 -4.6138,-6.5431 -2.7388,-11.0305 2.596,-6.2131 4.2413,-6.4715 41.2708,-6.48 44.0345,-0.01 51.1298,-1.3278 62.1657,-11.5452 17.7349,-16.4194 15.4838,-43.5921 -4.4835,-54.1192 -9.4121,-4.9622 -13.1543,-5.328 -54.499,-5.328 -31.938,0 -38.4664,-0.241 -40.9211,-1.5104 -4.8199,-2.4925 -6.171,-6.7817 -3.7853,-12.0176 2.4543,-5.3867 3.2043,-5.472 48.072,-5.472 25.645,0 43.621,-0.4155 47.2996,-1.0933 12.9149,-2.3796 23.2058,-9.9202 28.2635,-20.7102 2.2374,-4.7732 2.6702,-7.0743 2.6702,-14.1965 0,-7.1223 -0.4328,-9.4234 -2.6702,-14.1965 -3.094,-6.6006 -9.8195,-13.7373 -15.8406,-16.8091 -8.7929,-4.4858 -14.651,-4.9586 -61.6625,-4.9771 l -44.1733,-0.017 -2.958,-2.489 c -5.553,-4.6725 -4.4951,-12.7173 2.0827,-15.8387 3.1178,-1.4795 8.3489,-1.674 45.373,-1.6871 45.3372,-0.016 49.284,-0.3849 59.5008,-5.5622 6.8229,-3.4574 14.4445,-10.7387 17.6931,-16.9032 2.3211,-4.4045 2.646,-6.1843 2.6502,-14.5198 0,-8.7774 -0.2309,-9.9183 -3.094,-15 -1.7871,-3.1718 -5.1238,-7.0444 -7.8827,-9.1484 -9.4081,-7.1749 -7.3209,-6.9965 -91.5465,-7.8264 -84.4982,-0.8326 -77.8625,-0.1959 -86.6707,-8.3151 -5.3897,-4.968 -8.2178,-10.209 -8.9795,-16.6408 -0.6876,-5.8058 -0.01,-8.0252 8.7167,-28.5693 9.2067,-21.6728 11.6302,-28.3069 14.4197,-39.4727 7.2358,-28.9625 9.5806,-68.5104 5.0709,-85.5273 -4.7607,-17.9646 -15.7235,-29.1371 -31.8617,-32.4711 l -5.8326,-1.205 -7.6674,4.4174 c -9.6786,5.5761 -10.6582,7.4646 -13.1774,25.4037 -4.1087,29.2576 -5.2688,35.2205 -9.1155,46.855 -2.3007,6.9585 -7.2527,18.3019 -11.7869,27 -15.4116,29.5645 -22.2738,39.7712 -43.1364,64.1607 -15.5311,18.1567 -19.5828,23.3966 -30.4189,39.3393 -17.6896,26.0261 -29.2041,38.0006 -44.5323,46.3112 -13.1737,7.1425 -12.1152,7.0219 -67,7.6354 -45.7124,0.5111 -49.7756,0.6961 -53.1022,2.4181 -1.9812,1.0256 -4.4562,3.2756 -5.5,5 -1.8221,3.0103 -1.9104,6.9046 -2.2137,97.6353 -0.1737,51.975 -0.018,99.11 0.3458,104.7444 0.7158,11.0811 2.128,14.4641 7.791,18.6637 2.7059,2.0066 4.3784,2.1192 41,2.7615 42.8398,0.7512 46.863,1.2647 60.1791,7.6808 4.4,2.1201 12.95,7.0868 19,11.0372 29.704,19.3954 59.5142,29.2743 98,32.4765 2.2,0.183 47.2,0.2871 100,0.2313 l 96,-0.1015 z"
       id="path1" /></g></svg>
