<?xml version="1.0" encoding="UTF-8" standalone="no"?>
<!-- Created with Inkscape (http://www.inkscape.org/) -->

<svg
   width="141.32173mm"
   height="154.39798mm"
   viewBox="0 0 534.12939 583.55144"
   version="1.1"
   id="svg1"
   xml:space="preserve"
   xmlns="http://www.w3.org/2000/svg"
   xmlns:svg="http://www.w3.org/2000/svg"><defs
     id="defs1" /><g
     id="layer1"
     transform="translate(1626.7691,2405.404)"><path
       style="fill:#000000"
       d="m -1382.7876,-1822.5044 c -40.8281,-2.8319 -74.5503,-13.8828 -107.3103,-35.166 -11.2669,-7.3197 -20.0597,-11.969 -25.981,-13.7376 -2.5846,-0.772 -18.1542,-1.4757 -44,-1.9886 -34.8374,-0.6915 -40.5808,-1.0245 -44.5,-2.5802 -9.8864,-3.9244 -17.6553,-12.1973 -20.5233,-21.8548 -2.243,-7.5533 -2.2127,-214.7685 0.033,-222.3292 2.2819,-7.6837 7.1935,-14.2921 13.3564,-17.9704 9.8675,-5.8894 14.0692,-6.3089 63.3317,-6.3221 48.0259,-0.013 49.5686,-0.1568 60.6712,-5.6619 8.9843,-4.4548 21.8303,-18.1662 34.0428,-36.336 10.9896,-16.3505 19.9479,-28.0541 34.054,-44.4902 17.863,-20.8135 22.3751,-27.2039 34.2452,-48.5 17.2024,-30.8627 18.6109,-35.3969 24.6972,-79.5 2.2878,-16.5782 4.7081,-23.646 10.2553,-29.948 4.4305,-5.0332 13.4214,-11.5526 20.1372,-14.6015 8.3016,-3.7688 20.6845,-1.9447 35.6997,5.2591 11.7293,5.6272 19.3062,13.4002 25.5267,26.187 6.5913,13.5493 8.4436,23.5353 8.4602,45.6095 0.03,39.2634 -6.0298,67.501 -23.3796,108.955 -6.3345,15.1349 -6.4363,15.5197 -4.8282,18.242 0.9035,1.5296 3.1349,3.2735 4.9587,3.8754 2.1759,0.7181 27.6327,1.3684 74.0391,1.8915 78.1396,0.8808 76.7209,0.763 90.8209,7.5448 12.8406,6.1761 22.614,18.5542 25.4549,32.2392 0.6847,3.2981 1.0037,10.3469 0.7584,16.7567 -0.3764,9.8342 -0.7746,11.8143 -3.5827,17.815 -4.6241,9.8813 -8.9176,15.3147 -15.5019,19.6168 l -5.8466,3.8202 3.5008,2.1635 c 8.4796,5.2407 17.2555,17.74 20.0864,28.6088 1.9374,7.4382 1.9673,23.2434 0.058,30.4197 -3.7536,14.105 -12.4459,25.9417 -22.2963,30.3623 l -5.8726,2.6355 5.6468,5.8067 c 10.0961,10.3819 13.5294,20.786 12.7579,38.6608 -0.5586,12.9424 -2.6094,19.4128 -9.4412,29.7881 -5.5252,8.3909 -12.0113,14.2165 -20.07,18.0261 l -6.2507,2.955 2.0838,2.9265 c 6.0088,8.4386 8.3634,24.2884 5.512,37.1046 -4.3945,19.7528 -22.4446,36.3497 -46.0943,42.3833 -6.4465,1.6447 -14.3543,1.8001 -100,1.9657 -51.15,0.099 -98.269,-0.1856 -104.7088,-0.6323 z m 204.7087,-21.8016 c 9.6054,-3.2363 14.572,-6.3396 20.4645,-12.7869 6.8005,-7.4408 9.8318,-16.7582 8.1602,-25.0819 -1.3751,-6.8467 -3.5507,-10.6866 -8.1704,-14.4201 -6.0076,-4.8552 -13.5588,-5.8094 -46.1276,-5.8291 l -28.6733,-0.017 -2.9675,-2.4971 c -3.7786,-3.1794 -4.6138,-6.5431 -2.7388,-11.0305 2.596,-6.2131 4.2413,-6.4715 41.2708,-6.48 44.0345,-0.01 51.1298,-1.3278 62.1657,-11.5452 17.7349,-16.4194 15.4838,-43.5921 -4.4835,-54.1192 -9.4121,-4.9622 -13.1543,-5.328 -54.499,-5.328 -31.938,0 -38.4664,-0.241 -40.9211,-1.5104 -4.8199,-2.4925 -6.171,-6.7817 -3.7853,-12.0176 2.4543,-5.3867 3.2043,-5.472 48.072,-5.472 25.645,0 43.621,-0.4155 47.2996,-1.0933 12.9149,-2.3796 23.2058,-9.9202 28.2635,-20.7102 2.2374,-4.7732 2.6702,-7.0743 2.6702,-14.1965 0,-7.1223 -0.4328,-9.4234 -2.6702,-14.1965 -3.094,-6.6006 -9.8195,-13.7373 -15.8406,-16.8091 -8.7929,-4.4858 -14.651,-4.9586 -61.6625,-4.9771 l -44.1733,-0.017 -2.958,-2.489 c -5.553,-4.6725 -4.4951,-12.7173 2.0827,-15.8387 3.1178,-1.4795 8.3489,-1.674 45.373,-1.6871 45.3372,-0.016 49.284,-0.3849 59.5008,-5.5622 6.8229,-3.4574 14.4445,-10.7387 17.6931,-16.9032 2.3211,-4.4045 2.646,-6.1843 2.6502,-14.5198 0,-8.7774 -0.2309,-9.9183 -3.094,-15 -1.7871,-3.1718 -5.1238,-7.0444 -7.8827,-9.1484 -9.4081,-7.1749 -7.3209,-6.9965 -91.5465,-7.8264 -84.4982,-0.8326 -77.8625,-0.1959 -86.6707,-8.3151 -5.3897,-4.968 -8.2178,-10.209 -8.9795,-16.6408 -0.6876,-5.8058 -0.01,-8.0252 8.7167,-28.5693 9.2067,-21.6728 11.6302,-28.3069 14.4197,-39.4727 7.2358,-28.9625 9.5806,-68.5104 5.0709,-85.5273 -4.7607,-17.9646 -15.7235,-29.1371 -31.8617,-32.4711 l -5.8326,-1.205 -7.6674,4.4174 c -9.6786,5.5761 -10.6582,7.4646 -13.1774,25.4037 -4.1087,29.2576 -5.2688,35.2205 -9.1155,46.855 -2.3007,6.9585 -7.2527,18.3019 -11.7869,27 -15.4116,29.5645 -22.2738,39.7712 -43.1364,64.1607 -15.5311,18.1567 -19.5828,23.3966 -30.4189,39.3393 -17.6896,26.0261 -29.2041,38.0006 -44.5323,46.3112 -13.1737,7.1425 -12.1152,7.0219 -67,7.6354 -45.7124,0.5111 -49.7756,0.6961 -53.1022,2.4181 -1.9812,1.0256 -4.4562,3.2756 -5.5,5 -1.8221,3.0103 -1.9104,6.9046 -2.2137,97.6353 -0.1737,51.975 -0.018,99.11 0.3458,104.7444 0.7158,11.0811 2.128,14.4641 7.791,18.6637 2.7059,2.0066 4.3784,2.1192 41,2.7615 42.8398,0.7512 46.863,1.2647 60.1791,7.6808 4.4,2.1201 12.95,7.0868 19,11.0372 29.704,19.3954 59.5142,29.2743 98,32.4765 2.2,0.183 47.2,0.2871 100,0.2313 l 96,-0.1015 z"
       id="path1" /></g></svg>
