<?xml version="1.0" encoding="UTF-8" standalone="no"?>
<!-- Created with Inkscape (http://www.inkscape.org/) -->

<svg
   width="136.62538mm"
   height="220.34474mm"
   viewBox="0 0 516.3794 832.79905"
   version="1.1"
   id="svg1"
   xml:space="preserve"
   sodipodi:docname="wave.svg"
   inkscape:version="1.4 (86a8ad7, 2024-10-11)"
   xmlns:inkscape="http://www.inkscape.org/namespaces/inkscape"
   xmlns:sodipodi="http://sodipodi.sourceforge.net/DTD/sodipodi-0.dtd"
   xmlns="http://www.w3.org/2000/svg"
   xmlns:svg="http://www.w3.org/2000/svg"><sodipodi:namedview
     id="namedview1"
     pagecolor="#ffffff"
     bordercolor="#000000"
     borderopacity="0.25"
     inkscape:showpageshadow="2"
     inkscape:pageopacity="0.0"
     inkscape:pagecheckerboard="0"
     inkscape:deskcolor="#d1d1d1"
     inkscape:document-units="mm"
     inkscape:zoom="0.32816654"
     inkscape:cx="51.802966"
     inkscape:cy="339.76651"
     inkscape:window-width="1920"
     inkscape:window-height="991"
     inkscape:window-x="-9"
     inkscape:window-y="-9"
     inkscape:window-maximized="1"
     inkscape:current-layer="layer1" /><defs
     id="defs1" /><g
     id="layer1"
     transform="translate(-2389.3834,2846.2275)"><path
       style="fill:#fff;fill-opacity:1;stroke:none;stroke-opacity:1"
       d="m 2525.2636,-2047.1633 v -33.5 h 6 6 v 14.026 14.0261 l 15.25,-0.2761 15.25,-0.276 0.2783,-13.75 0.2782,-13.75 h 5.4718 5.4717 v 33.5 33.5 h -5.5 -5.5 v -14 -14 h -15.5 -15.5 v 14 14 h -6 -6 z m 65.3089,31.75 c 0.2982,-0.9625 3.9745,-11.425 8.1696,-23.25 4.1952,-11.825 9.2382,-26.1125 11.2067,-31.75 l 3.5792,-10.25 h 6.8544 c 8.0707,0 6.3801,-2.5806 15.7553,24.0503 3.3787,9.5973 8.1642,22.8731 10.6345,29.5016 2.4703,6.6286 4.4914,12.3661 4.4914,12.75 0,0.384 -2.8471,0.6981 -6.3269,0.6981 h -6.3269 l -2.7849,-8 -2.7849,-8 h -12.6553 -12.6554 l -2.8424,8 -2.8425,8 h -6.007 c -5.2608,0 -5.9397,-0.2174 -5.4649,-1.75 z m 38.1445,-27.5 c -2.629,-8.6805 -7.8172,-22.75 -8.3893,-22.75 -0.579,0 -8.0641,22.6748 -8.0641,24.4288 0,0.3142 3.8554,0.5712 8.5674,0.5712 8.42,0 8.5557,-0.039 7.886,-2.25 z m 32.7832,-4 0.2634,-33.25 6.1058,-0.294 6.1058,-0.294 14.3942,23.294 14.3942,23.294 0.5,-23 0.5,-23 h 5.5 5.5 l 0.2635,33.25 0.2635,33.25 h -5.8905 -5.8906 l -13.5616,-21.75 c -7.4589,-11.9625 -14.2499,-22.65 -15.0911,-23.75 -1.3862,-1.8125 -1.5325,0.2262 -1.5614,21.75 l -0.032,23.75 h -6.0134 -6.0135 z m 69.7634,-0.2665 v -33.7512 l 15.25,0.5324 c 10.4837,0.3661 16.6982,1.05 19.8835,2.1882 17.0099,6.0782 24.7696,29.5577 15.9391,48.2297 -3.0879,6.5295 -7.2701,10.5919 -14.0726,13.6698 -3.767,1.7045 -7.1466,2.105 -20.75,2.4593 l -16.25,0.4231 z m 31.4556,20.538 c 6.0626,-2.9349 9.3898,-8.5601 10.201,-17.2466 1.0006,-10.7149 -3.3276,-19.985 -11.0839,-23.7397 -5.4317,-2.6295 -18.0152,-2.9303 -18.9657,-0.4534 -0.7608,1.9827 -0.8083,42.8835 -0.051,43.6412 0.306,0.3059 3.8796,0.4339 7.9414,0.2842 5.1386,-0.1893 8.7761,-0.9454 11.9578,-2.4857 z m -159.2119,-82.9483 c -6.6274,-3.0847 -10.4737,-6.4777 -13.8908,-12.2536 -10.8183,-18.2864 -4.2307,-43.447 13.6054,-51.9639 6.4509,-3.0803 17.5936,-3.0272 24.8212,0.1182 6.713,2.9216 13.4151,10.2688 16.2594,17.8245 1.8087,4.8046 2.0843,7.2748 1.7517,15.7016 -0.3382,8.5677 -0.8118,10.8386 -3.3063,15.855 -3.0583,6.1499 -8.2261,11.3055 -14.3395,14.3056 -5.5862,2.7414 -19.406,2.9704 -24.9011,0.4126 z m 20.3905,-10.9918 c 7.6283,-4.6515 12.4571,-16.7659 10.4371,-26.1846 -2.139,-9.9737 -6.1232,-15.2408 -13.095,-17.3112 -4.849,-1.44 -10.5905,-0.9502 -14.6856,1.2527 -5.2954,2.8487 -10.2907,13.3196 -10.2907,21.5709 0,8.6196 5.3253,18.5194 11.3792,21.1542 4.6348,2.0172 12.5409,1.7828 16.255,-0.482 z m 47.7488,10.5164 c -2.8239,-1.3149 -6.3347,-3.979 -7.8343,-5.9451 -4.8722,-6.3878 -5.5487,-10.8149 -5.5487,-36.3116 v -23.3411 h 6 6 v 23.5321 c 0,26.3201 0.5348,29.1417 6.065,32.0015 4.281,2.2138 14.1351,2.2206 17.5057,0.012 1.3886,-0.9099 3.4017,-3.0924 4.4733,-4.85 1.7867,-2.9302 1.9489,-5.1687 1.9523,-26.9457 v -23.75 h 5.5 5.5 l -0.01,24.75 c -0.01,23.9033 -0.091,24.9235 -2.371,29.8209 -2.7063,5.8119 -8.0197,10.6333 -13.5415,12.2877 -6.7547,2.0237 -17.9163,1.4298 -23.6948,-1.2608 z m -124.383,-10.1853 c 0,-11.2689 -0.093,-11.757 -3.367,-17.75 -1.8519,-3.3894 -7.0481,-13.25 -11.547,-21.9125 l -8.18,-15.75 h 6.8515 6.8515 l 7.3579,15 c 4.0469,8.25 7.6223,14.9988 7.9455,14.9974 0.3232,0 3.8183,-6.7514 7.7668,-15 l 7.1791,-14.9974 h 6.5709 c 3.614,0 6.5708,0.4128 6.5708,0.9173 0,0.5044 -4.95,10.0119 -11,21.1277 l -11,20.2105 v 12.3723 12.3722 h -6 -6 z m 180,-22.0404 v -33.6279 l 16.8383,0.4381 c 16.1528,0.4202 17.0281,0.5493 21.5017,3.171 12.6971,7.441 12.2101,26.887 -0.8283,33.0742 -1.9314,0.9165 -3.5028,1.9827 -3.492,2.3694 0.011,0.3867 4.0087,6.7781 8.8841,14.2031 l 8.8642,13.5 -6.0286,0.3015 c -3.3158,0.1658 -6.5498,0.1015 -7.1867,-0.1429 -0.6369,-0.2444 -4.905,-6.3426 -9.4846,-13.5515 l -8.3266,-13.1071 h -4.3707 -4.3708 v 13.5 13.5 h -6 -6 z m 32.4653,-5.7574 c 5.0611,-3.3162 5.587,-9.1264 1.2776,-14.1175 -2.0932,-2.4243 -2.8768,-2.611 -11.7429,-2.7974 l -9.5,-0.1998 -0.2931,8.4164 c -0.1612,4.629 -0.072,8.9923 0.198,9.6961 0.7664,1.9974 16.6986,1.205 20.0604,-0.9978 z m -221.4653,-57.0833 c 0,-0.2577 -3.825,-15.214 -8.5,-33.2361 -4.675,-18.0222 -8.5,-32.8863 -8.5,-33.0315 0,-0.1451 2.6789,-0.2638 5.953,-0.2638 6.9933,0 5.3952,-3.4995 12.5585,27.5 2.6689,11.55 5.1574,21.3642 5.5299,21.8094 0.3726,0.4451 3.8139,-10.3549 7.6473,-24 l 6.9699,-24.8094 5.0203,-0.2971 5.0203,-0.297 3.6118,12.297 c 1.9865,6.7634 5.0917,17.8084 6.9004,24.5444 1.8088,6.736 3.5136,12.2449 3.7886,12.2421 0.275,0 3.1751,-11.0267 6.4446,-24.4973 l 5.9446,-24.4921 h 5.8054 c 3.193,0 5.8054,0.278 5.8054,0.6178 0,0.3399 -1.577,6.5274 -3.5045,13.75 -7.2788,27.275 -12.7824,48.2118 -13.2555,50.4267 -0.4552,2.1311 -0.9262,2.2735 -6.615,2 l -6.125,-0.2945 -6.2105,-21.5 c -3.4158,-11.825 -6.2283,-22.2875 -6.25,-23.25 -0.074,-3.291 -1.961,-1.7552 -3.0712,2.5 -0.6099,2.3375 -3.1552,11.225 -5.6562,19.75 -2.5011,8.525 -4.9992,17.1875 -5.5514,19.25 l -1.0039,3.75 h -6.3784 c -3.5081,0 -6.3784,-0.2109 -6.3784,-0.4686 z m 70,-0.4154 c 0,-0.4862 3.8343,-11.8487 8.5206,-25.25 4.6863,-13.4013 9.7771,-27.966 11.3129,-32.366 l 2.7924,-8 h 7.4245 7.4244 l 8.0878,22.5 c 4.4482,12.375 9.7414,27.0522 11.7626,32.6159 2.0212,5.5638 3.6748,10.4228 3.6748,10.7978 0,0.3749 -2.8125,0.5478 -6.25,0.384 l -6.25,-0.2977 -2.6169,-7.5 -2.617,-7.5 h -13.3217 -13.3217 l -2.5146,7.75 -2.5145,7.75 h -5.7968 c -3.1882,0 -5.7968,-0.3978 -5.7968,-0.884 z m 38.7597,-27.366 c -0.2499,-0.6875 -2.1597,-6.3125 -4.2442,-12.5 -2.0844,-6.1875 -4.0716,-11.25 -4.416,-11.25 -0.3444,0 -1.9402,3.9375 -3.5464,8.75 -1.6061,4.8125 -3.4927,10.4375 -4.1923,12.5 l -1.272,3.75 h 9.0626 c 6.8257,0 8.9505,-0.3085 8.6083,-1.25 z m 32.2313,-3.9593 c -6.2226,-17.7599 -11.5144,-32.8532 -11.7594,-33.5407 -0.3269,-0.9171 1.2775,-1.25 6.0244,-1.25 h 6.47 l 8.2765,24.25 c 9.3919,27.5181 9.6912,28.2251 10.5917,25.0248 0.3444,-1.2238 4.0922,-12.6988 8.3286,-25.5 l 7.7024,-23.2748 6.1874,-0.2977 c 3.4031,-0.1638 6.1845,0.061 6.181,0.5 0,0.4387 -5.1088,15.4227 -11.345,33.2977 l -11.3387,32.5 -7.0025,0.2907 -7.0025,0.2908 z m 57.1564,-1.2907 0.3526,-33.4999 21.75,-1e-4 h 21.75 v 5.5 5.5 h -15.5 -15.5 v 7.9733 7.9732 l 14.75,0.2768 14.75,0.2767 -0.1045,4.5 -0.1046,4.5 -14.6454,0.2767 -14.6455,0.2768 v 9.4478 9.4479 l 15.75,0.2754 15.75,0.2754 0.3023,5.25 0.3023,5.25 h -22.655 -22.6549 z m 13.8781,-97.4746 c -1.086,-1.086 -2.2659,-3.1353 -2.622,-4.554 -0.3561,-1.4187 -0.4405,-13.4677 -0.1877,-26.7755 0.439,-23.1012 0.5832,-24.5579 3.1869,-32.1959 3.6827,-10.8029 9.6671,-21.7207 19.4588,-35.5 11.988,-16.87 15.0801,-23.9462 21.1927,-48.5 2.8362,-11.393 1.8722,-212.9373 -1.0676,-223.1961 -2.7228,-9.5016 -13.9459,-17.0972 -23.6778,-16.0247 -6.1334,0.6759 -12.7881,4.9762 -15.8891,10.2677 -4.5961,7.8426 -5.4381,17.9675 -5.2123,62.6715 l 0.2006,39.7185 -2.4225,2.5786 c -3.0427,3.2388 -7.8819,3.1105 -9.5487,-0.2532 -0.7654,-1.5445 -1.32,-26.6686 -1.7904,-81.0996 -0.7344,-84.9961 -0.7603,-85.3906 -6.1084,-93.108 -3.2688,-4.7168 -10.9582,-9.9241 -15.8195,-10.713 -4.8878,-0.7931 -14.0548,2.1367 -18.2729,5.8403 -4.2837,3.7611 -7.0503,8.9144 -8.6087,16.035 -0.8124,3.7118 -1.1831,27.3885 -1.2466,79.6122 -0.089,73.1102 -0.123,74.3532 -2.0894,75.7924 -2.8723,2.1023 -6.4787,1.3147 -8.9013,-1.9441 -2.3805,-3.2021 -1.9914,9.7281 -3.5564,-118.1775 -0.9467,-77.3716 -0.97,-77.6666 -6.8037,-85.9669 -3.881,-5.5221 -9.4419,-8.4961 -15.9244,-8.5167 -2.8517,-0.01 -6.2892,0.4034 -7.6389,0.9166 -4.0446,1.5378 -9.6562,7.0907 -12.1035,11.977 -4.8796,9.743 -4.8613,9.2813 -4.077,102.9216 0.7559,90.2371 0.5987,95.1507 -3.0883,96.5656 -2.659,1.0203 -7.1084,0.6687 -8.1882,-0.6472 -1.0544,-1.2849 -3.2265,-92.5694 -3.2217,-135.3947 0,-25.0683 -1.19,-31.533 -7.147,-38.7343 -3.682,-4.4511 -11.7629,-8.597 -16.7847,-8.6112 -8.3758,-0.024 -17.4717,7.7925 -20.5845,17.6889 -1.6444,5.2282 -1.7258,9.8314 -1.1271,63.7183 0.355,31.9456 0.7329,81.9668 0.8398,111.1582 0.1869,51.0343 0.1193,53.2037 -1.759,56.4197 -5.4429,9.3196 -18.1378,4.6464 -24.7389,-9.1069 -1.4223,-2.9634 -5.5567,-15.6741 -9.1877,-28.246 -7.532,-26.0796 -15.0795,-46.3051 -19.5459,-52.3783 -3.942,-5.3603 -12.3976,-9.6483 -19.0259,-9.6483 -6.4278,0 -11.9131,3.666 -15.0654,10.0686 -4.7801,9.7087 -1.9069,28.0357 12.9968,82.9017 3.274,12.0529 7.9942,30.2393 10.4893,40.4143 4.9467,20.1726 7.4277,27.2156 13.6523,38.7555 10.3678,19.2214 21.194,32.0468 45.0816,53.4069 16.6489,14.8874 21.9088,31.4313 21.9088,68.91 0,16.5943 -0.1487,18.0763 -2,19.9276 -2.2308,2.2308 -4.1953,2.501 -7.0554,0.9703 -3.948,-2.1129 -4.6689,-5.6819 -5.2452,-25.9703 -0.6076,-21.3903 -2.4038,-31.5171 -7.3178,-41.2564 -3.4662,-6.8699 -6.6292,-10.385 -17.7852,-19.7649 -5.0888,-4.2786 -12.291,-11.0866 -16.0049,-15.129 -12.3058,-13.3941 -28.4521,-39.6006 -33.7938,-54.8497 -2.2435,-6.4046 -24.3305,-93.6107 -28.3666,-112 -2.0858,-9.5036 -2.766,-15.3847 -2.8373,-24.5337 -0.094,-12.0256 -0.091,-12.0377 3.4062,-17.9744 4.609,-7.8229 11.853,-14.8885 17.4603,-17.0299 11.0795,-4.2313 27.6139,0.4818 37.9496,10.8174 9.6802,9.6802 18.7577,32.9128 29.5859,75.7206 1.1825,4.675 2.6123,8.95 3.1772,9.5 0.7026,0.684 0.8389,-10.0582 0.4314,-34 -1.5558,-91.419 -1.8425,-174.0363 -0.6247,-180.0063 2.5835,-12.6641 11.8161,-24.737 23.3096,-30.4804 5.0173,-2.5071 7.2302,-3.0133 13.1741,-3.0133 8.2935,0 16.1698,3.2322 19.782,8.118 1.1719,1.5851 2.4443,2.882 2.8275,2.882 0.3832,0 1.008,-2.4918 1.3885,-5.5373 0.9813,-7.8536 7.3386,-20.0665 13.3938,-25.7305 11.5172,-10.773 23.8333,-13.1139 36.4129,-6.921 7.6409,3.7616 13.4411,9.7672 17.2893,17.9017 3.082,6.5147 5.4013,16.7907 5.4253,24.0371 0.01,2.8875 0.2833,5.25 0.6084,5.25 0.325,0 2.3801,-1.5314 4.5667,-3.403 2.1866,-1.8717 6.7581,-4.4573 10.1589,-5.7459 21.776,-8.2507 44.6646,7.0925 48.705,32.6489 0.7264,4.5943 0.8642,13.6156 0.4009,26.25 -0.3881,10.5875 -0.4209,19.25 -0.073,19.25 0.3482,0 2.6333,-1.5269 5.0781,-3.393 6.8475,-5.2269 12.2221,-6.8962 20.7608,-6.4482 13.4572,0.7061 26.1668,8.9344 31.4194,20.3412 4.3633,9.4754 4.5356,14.0492 4.7182,125.2451 0.1597,97.1843 0.033,106.4082 -1.5683,113.8156 -4.0059,18.5354 -7.2788,25.6878 -21.9557,47.9806 -11.5263,17.5072 -14.1129,22.1421 -16.9357,30.3467 -3.1015,9.0147 -4.9921,26.8864 -4.2441,40.121 0.7701,13.627 -0.02,20.3884 -2.6945,23.0631 -2.4826,2.4826 -6.3937,2.4621 -8.9025,-0.047 z m 95.4912,-76.4179 c -3.9311,-3.931 -3.3106,-7.2407 2.847,-15.1863 5.9213,-7.6407 18.262,-27.0399 24.1233,-37.9212 7.6328,-14.17 14.3754,-35.154 16.5469,-51.4965 1.9057,-14.3419 1.4955,-37.8527 -0.8899,-51.0035 -3.2722,-18.0403 -12.0746,-41.6057 -19.7015,-52.7445 -4.9573,-7.2399 -5.5071,-10.6323 -2.3699,-14.6206 2.0706,-2.6324 4.2576,-3.2129 7.4658,-1.9818 2.4353,0.9345 10.843,14.1604 16.4309,25.8469 12.2335,25.585 17.0512,52.1988 15.1152,83.5 -1.1462,18.5319 -1.8015,21.9215 -8.1261,42.035 -6.9924,22.2366 -14.5196,36.5988 -29.6285,56.5316 -6.6935,8.8307 -12.7685,16.5357 -13.5,17.1222 -3.1246,2.5055 -5.7521,2.4798 -8.3132,-0.081 z m -425.1337,-74.3728 c -1.7681,-1.1629 -7.7147,-10.9297 -12.6244,-20.7347 -21.3901,-42.7171 -24.4754,-91.2574 -8.7102,-137.0326 5.0725,-14.7282 9.6408,-23.6228 21.1039,-41.0897 10.8159,-16.4807 20.9579,-27.3777 25.4808,-27.3777 3.7273,0 6.3669,2.6852 6.3669,6.4766 0,2.1696 -1.9015,4.8012 -8.2528,11.4213 -9.0038,9.3848 -15.4495,19.4086 -24.8225,38.6021 -10.7846,22.0838 -15.0969,43.007 -15.1487,73.5 -0.026,15.3045 0.3022,19.0055 2.6166,29.5 4.4957,20.3858 8.7877,31.8594 18.1988,48.6497 2.9747,5.3073 5.4086,10.8198 5.4086,12.25 0,4.6907 -5.9073,8.2748 -9.617,5.835 z"
       id="path5"
       sodipodi:nodetypes="cccccccccccccccccccccccccssscssssscccccccsscssscccccccccccccccsssccccccsssssccsssscsssscsssssssssssssscsscccssssccccccsccscccccscscssscccccsccssscscsssccccccccssscsssssssscscccsscscssssscscssscsssssccccssscccccccssssssscssssscssscscccccsccccccccccccccccccccccccccsccsssssscssccccscsssccccccscscccscsccscsscssssssscscccccsscccsssccsccsccscscssccsssccccssssssssscscccscssssccsccss" /></g></svg>
