<?xml version="1.0" encoding="UTF-8" standalone="no"?>
<!-- Created with Inkscape (http://www.inkscape.org/) -->

<svg
   width="136.62538mm"
   height="135.59494mm"
   viewBox="0 0 516.3794 512.48483"
   version="1.1"
   id="svg1"
   xml:space="preserve"
   xmlns="http://www.w3.org/2000/svg"
   xmlns:svg="http://www.w3.org/2000/svg"><defs
     id="defs1" /><g
     id="layer1"
     transform="translate(-2389.3834,2846.2275)"><path
       style="fill:#000000"
       d="m 2750.2891,-2335.6379 c -1.086,-1.086 -2.2659,-3.1353 -2.622,-4.554 -0.3561,-1.4187 -0.4405,-13.4677 -0.1877,-26.7755 0.439,-23.1012 0.5832,-24.5579 3.1869,-32.1959 3.6827,-10.8029 9.6671,-21.7207 19.4588,-35.5 11.988,-16.87 15.0801,-23.9462 21.1927,-48.5 2.8362,-11.393 1.8722,-212.9373 -1.0676,-223.1961 -2.7228,-9.5016 -13.9459,-17.0972 -23.6778,-16.0247 -6.1334,0.6759 -12.7881,4.9762 -15.8891,10.2677 -4.5961,7.8426 -5.4381,17.9675 -5.2123,62.6715 l 0.2006,39.7185 -2.4225,2.5786 c -3.0427,3.2388 -7.8819,3.1105 -9.5487,-0.2532 -0.7654,-1.5445 -1.32,-26.6686 -1.7904,-81.0996 -0.7344,-84.9961 -0.7603,-85.3906 -6.1084,-93.108 -3.2688,-4.7168 -10.9582,-9.9241 -15.8195,-10.713 -4.8878,-0.7931 -14.0548,2.1367 -18.2729,5.8403 -4.2837,3.7611 -7.0503,8.9144 -8.6087,16.035 -0.8124,3.7118 -1.1831,27.3885 -1.2466,79.6122 -0.089,73.1102 -0.123,74.3532 -2.0894,75.7924 -2.8723,2.1023 -6.4787,1.3147 -8.9013,-1.9441 -2.3805,-3.2021 -1.9914,9.7281 -3.5564,-118.1775 -0.9467,-77.3716 -0.97,-77.6666 -6.8037,-85.9669 -3.881,-5.5221 -9.4419,-8.4961 -15.9244,-8.5167 -2.8517,-0.01 -6.2892,0.4034 -7.6389,0.9166 -4.0446,1.5378 -9.6562,7.0907 -12.1035,11.977 -4.8796,9.743 -4.8613,9.2813 -4.077,102.9216 0.7559,90.2371 0.5987,95.1507 -3.0883,96.5656 -2.659,1.0203 -7.1084,0.6687 -8.1882,-0.6472 -1.0544,-1.2849 -3.2265,-92.5694 -3.2217,-135.3947 0,-25.0683 -1.19,-31.533 -7.147,-38.7343 -3.682,-4.4511 -11.7629,-8.597 -16.7847,-8.6112 -8.3758,-0.024 -17.4717,7.7925 -20.5845,17.6889 -1.6444,5.2282 -1.7258,9.8314 -1.1271,63.7183 0.355,31.9456 0.7329,81.9668 0.8398,111.1582 0.1869,51.0343 0.1193,53.2037 -1.759,56.4197 -5.4429,9.3196 -18.1378,4.6464 -24.7389,-9.1069 -1.4223,-2.9634 -5.5567,-15.6741 -9.1877,-28.246 -7.532,-26.0796 -15.0795,-46.3051 -19.5459,-52.3783 -3.942,-5.3603 -12.3976,-9.6483 -19.0259,-9.6483 -6.4278,0 -11.9131,3.666 -15.0654,10.0686 -4.7801,9.7087 -1.9069,28.0357 12.9968,82.9017 3.274,12.0529 7.9942,30.2393 10.4893,40.4143 4.9467,20.1726 7.4277,27.2156 13.6523,38.7555 10.3678,19.2214 21.194,32.0468 45.0816,53.4069 16.6489,14.8874 21.9088,31.4313 21.9088,68.91 0,16.5943 -0.1487,18.0763 -2,19.9276 -2.2308,2.2308 -4.1953,2.501 -7.0554,0.9703 -3.948,-2.1129 -4.6689,-5.6819 -5.2452,-25.9703 -0.6076,-21.3903 -2.4038,-31.5171 -7.3178,-41.2564 -3.4662,-6.8699 -6.6292,-10.385 -17.7852,-19.7649 -5.0888,-4.2786 -12.291,-11.0866 -16.0049,-15.129 -12.3058,-13.3941 -28.4521,-39.6006 -33.7938,-54.8497 -2.2435,-6.4046 -24.3305,-93.6107 -28.3666,-112 -2.0858,-9.5036 -2.766,-15.3847 -2.8373,-24.5337 -0.094,-12.0256 -0.091,-12.0377 3.4062,-17.9744 4.609,-7.8229 11.853,-14.8885 17.4603,-17.0299 11.0795,-4.2313 27.6139,0.4818 37.9496,10.8174 9.6802,9.6802 18.7577,32.9128 29.5859,75.7206 1.1825,4.675 2.6123,8.95 3.1772,9.5 0.7026,0.684 0.8389,-10.0582 0.4314,-34 -1.5558,-91.419 -1.8425,-174.0363 -0.6247,-180.0063 2.5835,-12.6641 11.8161,-24.737 23.3096,-30.4804 5.0173,-2.5071 7.2302,-3.0133 13.1741,-3.0133 8.2935,0 16.1698,3.2322 19.782,8.118 1.1719,1.5851 2.4443,2.882 2.8275,2.882 0.3832,0 1.008,-2.4918 1.3885,-5.5373 0.9813,-7.8536 7.3386,-20.0665 13.3938,-25.7305 11.5172,-10.773 23.8333,-13.1139 36.4129,-6.921 7.6409,3.7616 13.4411,9.7672 17.2893,17.9017 3.082,6.5147 5.4013,16.7907 5.4253,24.0371 0.01,2.8875 0.2833,5.25 0.6084,5.25 0.325,0 2.3801,-1.5314 4.5667,-3.403 2.1866,-1.8717 6.7581,-4.4573 10.1589,-5.7459 21.776,-8.2507 44.6646,7.0925 48.705,32.6489 0.7264,4.5943 0.8642,13.6156 0.4009,26.25 -0.3881,10.5875 -0.4209,19.25 -0.073,19.25 0.3482,0 2.6333,-1.5269 5.0781,-3.393 6.8475,-5.2269 12.2221,-6.8962 20.7608,-6.4482 13.4572,0.7061 26.1668,8.9344 31.4194,20.3412 4.3633,9.4754 4.5356,14.0492 4.7182,125.2451 0.1597,97.1843 0.033,106.4082 -1.5683,113.8156 -4.0059,18.5354 -7.2788,25.6878 -21.9557,47.9806 -11.5263,17.5072 -14.1129,22.1421 -16.9357,30.3467 -3.1015,9.0147 -4.9921,26.8864 -4.2441,40.121 0.7701,13.627 -0.02,20.3884 -2.6945,23.0631 -2.4826,2.4826 -6.3937,2.4621 -8.9025,-0.047 z m 95.4912,-76.4179 c -3.9311,-3.931 -3.3106,-7.2407 2.847,-15.1863 5.9213,-7.6407 18.262,-27.0399 24.1233,-37.9212 7.6328,-14.17 14.3754,-35.154 16.5469,-51.4965 1.9057,-14.3419 1.4955,-37.8527 -0.8899,-51.0035 -3.2722,-18.0403 -12.0746,-41.6057 -19.7015,-52.7445 -4.9573,-7.2399 -5.5071,-10.6323 -2.3699,-14.6206 2.0706,-2.6324 4.2576,-3.2129 7.4658,-1.9818 2.4353,0.9345 10.843,14.1604 16.4309,25.8469 12.2335,25.585 17.0512,52.1988 15.1152,83.5 -1.1462,18.5319 -1.8015,21.9215 -8.1261,42.035 -6.9924,22.2366 -14.5196,36.5988 -29.6285,56.5316 -6.6935,8.8307 -12.7685,16.5357 -13.5,17.1222 -3.1246,2.5055 -5.7521,2.4798 -8.3132,-0.081 z m -425.1337,-74.3728 c -1.7681,-1.1629 -7.7147,-10.9297 -12.6244,-20.7347 -21.3901,-42.7171 -24.4754,-91.2574 -8.7102,-137.0326 5.0725,-14.7282 9.6408,-23.6228 21.1039,-41.0897 10.8159,-16.4807 20.9579,-27.3777 25.4808,-27.3777 3.7273,0 6.3669,2.6852 6.3669,6.4766 0,2.1696 -1.9015,4.8012 -8.2528,11.4213 -9.0038,9.3848 -15.4495,19.4086 -24.8225,38.6021 -10.7846,22.0838 -15.0969,43.007 -15.1487,73.5 -0.026,15.3045 0.3022,19.0055 2.6166,29.5 4.4957,20.3858 8.7877,31.8594 18.1988,48.6497 2.9747,5.3073 5.4086,10.8198 5.4086,12.25 0,4.6907 -5.9073,8.2748 -9.617,5.835 z"
       id="path5" /></g></svg>
